<svg width="72" height="72" viewBox="0 0 72 72" fill="none" xmlns="http://www.w3.org/2000/svg">
<g clip-path="url(#clip0)">
<path d="M24.1144 18.6455C23.5142 18.6455 23.0278 18.159 23.0278 17.559V14.1978C23.0278 13.5978 23.5142 13.1113 24.1144 13.1113C24.7145 13.1113 25.2009 13.5978 25.2009 14.1978V17.559C25.2009 18.159 24.7145 18.6455 24.1144 18.6455Z" fill="#B8C9EA"/>
<path d="M22.0371 17.5591H26.1918V22.6262H22.0371V17.5591Z" fill="#B8C9EA"/>
<path d="M27.9098 18.6457H20.3189C19.7187 18.6457 19.2324 18.1592 19.2324 17.5592C19.2324 16.9591 19.7187 16.4727 20.3189 16.4727H27.9098C28.51 16.4727 28.9963 16.9591 28.9963 17.5592C28.9963 18.1592 28.51 18.6457 27.9098 18.6457Z" fill="#DFECFF"/>
<path d="M44.0859 17.5591H38.5981C38.3882 17.5591 38.1884 17.649 38.0494 17.8062L33.7853 22.626H44.8187V18.2917C44.8187 17.8872 44.4907 17.5591 44.0859 17.5591Z" fill="#93AEDA"/>
<path d="M47.799 30.4306V23.3582C47.799 22.9536 47.471 22.6255 47.0663 22.6255H19.0533C18.7911 22.6255 18.5489 22.7656 18.4182 22.9929L14.1411 30.4305L29.0903 31.4445L47.799 30.4306Z" fill="#DFECFF"/>
<path d="M15.8464 27.4653L14.1411 30.4307H47.799V27.4653H15.8464Z" fill="#B8C9EA"/>
<path d="M43.9685 27.6149H43.6754C43.0752 27.6149 42.5889 27.1285 42.5889 26.5284C42.5889 25.9284 43.0752 25.4419 43.6754 25.4419H43.9685C44.5687 25.4419 45.055 25.9284 45.055 26.5284C45.055 27.1285 44.5685 27.6149 43.9685 27.6149Z" fill="#487CD1"/>
<path d="M39.3639 27.6149H39.071C38.4708 27.6149 37.9845 27.1285 37.9845 26.5284C37.9845 25.9284 38.4708 25.4419 39.071 25.4419H39.3639C39.9641 25.4419 40.4505 25.9284 40.4505 26.5284C40.4505 27.1285 39.964 27.6149 39.3639 27.6149Z" fill="#487CD1"/>
<path d="M34.7593 27.6149H34.4664C33.8662 27.6149 33.3799 27.1285 33.3799 26.5284C33.3799 25.9284 33.8662 25.4419 34.4664 25.4419H34.7593C35.3595 25.4419 35.8458 25.9284 35.8458 26.5284C35.8458 27.1285 35.3594 27.6149 34.7593 27.6149Z" fill="#487CD1"/>
<path d="M30.1547 27.6149H29.8618C29.2616 27.6149 28.7753 27.1285 28.7753 26.5284C28.7753 25.9284 29.2616 25.4419 29.8618 25.4419H30.1547C30.7549 25.4419 31.2412 25.9284 31.2412 26.5284C31.2412 27.1285 30.7549 27.6149 30.1547 27.6149Z" fill="#487CD1"/>
<path d="M25.5502 27.6149H25.2572C24.657 27.6149 24.1707 27.1285 24.1707 26.5284C24.1707 25.9284 24.657 25.4419 25.2572 25.4419H25.5502C26.1504 25.4419 26.6368 25.9284 26.6368 26.5284C26.6368 27.1285 26.1504 27.6149 25.5502 27.6149Z" fill="#487CD1"/>
<path d="M20.9456 27.6149H20.6526C20.0524 27.6149 19.566 27.1285 19.566 26.5284C19.566 25.9284 20.0524 25.4419 20.6526 25.4419H20.9456C21.5458 25.4419 22.0321 25.9284 22.0321 26.5284C22.0321 27.1285 21.5458 27.6149 20.9456 27.6149Z" fill="#487CD1"/>
<path d="M59.3635 30.7538C59.2274 30.552 58.9998 30.4312 58.7564 30.4312H14.1413L11.0289 35.8432H6.03994C5.2307 35.8432 4.57458 36.4993 4.57458 37.3085V47.6775H61.172L65.6296 40.0305L59.3635 30.7538Z" fill="#DFECFF"/>
<path d="M71.8716 38.4032L64.3504 47.8561L54.2721 55.6028C53.7161 56.3017 52.8556 56.6926 51.9626 56.6926L4.3392 57.3957C4.01962 57.3957 4.48624 57.9324 4.3899 57.6276L1.77327 52.4665L0.0277439 46.9411C-0.086413 46.5796 0.166384 46.2067 0.544637 46.1805C3.54111 45.9728 7.53385 44.9329 9.28923 43.2668C9.42454 43.1384 9.60331 43.0676 9.7899 43.0676H46.8398C47.0582 43.0676 47.2652 42.9701 47.4045 42.8017L51.607 37.718C51.7462 37.5496 51.9532 37.4521 52.1717 37.4521H71.4129C71.9036 37.4521 72.1771 38.0192 71.8716 38.4032Z" fill="#4E7FCE"/>
<path d="M71.4127 37.4521H66.3827C66.8735 37.4521 67.1469 38.0192 66.8414 38.4032L51.4222 57.7829C50.8662 58.4818 50.0219 58.3095 49.1288 58.3095H54.1586C55.0518 58.3095 55.8961 56.7008 56.4521 56.0019L64.2324 48.0043L71.8714 38.4034C72.177 38.0192 71.9035 37.4521 71.4127 37.4521Z" fill="#2E5CA9"/>
<path d="M58.9975 50.4743C56.4027 51.7356 53.556 52.3912 50.671 52.3912H1.74963L3.64047 58.3766C3.7368 58.6814 4.01944 58.8886 4.33917 58.8886H54.1588C55.0519 58.8886 55.8962 58.4813 56.4523 57.7825L64.3066 47.9106C62.5003 48.7755 60.601 49.6949 58.9975 50.4743Z" fill="#FFB351"/>
<path d="M55.1888 58.7009C55.6793 58.5166 56.118 58.2029 56.4522 57.783L64.3066 47.9111C62.5002 48.7759 60.601 49.6952 58.9974 50.4746C58.162 50.8807 57.3001 51.2231 56.4196 51.502L51.4222 57.783C50.8662 58.4818 50.0219 58.889 49.1288 58.889H54.1586C54.2912 58.889 54.4224 58.879 54.552 58.8614C54.7617 58.833 54.977 58.7802 55.1888 58.7009Z" fill="#FE950D"/>
<path d="M17.692 35.8791H17.3989C16.7987 35.8791 16.3124 35.3926 16.3124 34.7926C16.3124 34.1925 16.7987 33.7061 17.3989 33.7061H17.692C18.2922 33.7061 18.7785 34.1925 18.7785 34.7926C18.7785 35.3926 18.2922 35.8791 17.692 35.8791Z" fill="#487CD1"/>
<path d="M22.3302 35.8791H22.0373C21.4371 35.8791 20.9508 35.3926 20.9508 34.7926C20.9508 34.1925 21.4371 33.7061 22.0373 33.7061H22.3302C22.9304 33.7061 23.4168 34.1925 23.4168 34.7926C23.4168 35.3926 22.9303 35.8791 22.3302 35.8791Z" fill="#487CD1"/>
<path d="M26.9686 35.8791H26.6755C26.0753 35.8791 25.589 35.3926 25.589 34.7926C25.589 34.1925 26.0753 33.7061 26.6755 33.7061H26.9686C27.5688 33.7061 28.0551 34.1925 28.0551 34.7926C28.0551 35.3926 27.5688 35.8791 26.9686 35.8791Z" fill="#487CD1"/>
<path d="M31.6068 35.8791H31.3137C30.7135 35.8791 30.2272 35.3926 30.2272 34.7926C30.2272 34.1925 30.7135 33.7061 31.3137 33.7061H31.6068C32.207 33.7061 32.6933 34.1925 32.6933 34.7926C32.6933 35.3926 32.2068 35.8791 31.6068 35.8791Z" fill="#487CD1"/>
<path d="M36.2448 35.8791H35.9519C35.3517 35.8791 34.8654 35.3926 34.8654 34.7926C34.8654 34.1925 35.3517 33.7061 35.9519 33.7061H36.2448C36.845 33.7061 37.3313 34.1925 37.3313 34.7926C37.3313 35.3926 36.845 35.8791 36.2448 35.8791Z" fill="#487CD1"/>
<path d="M40.8834 35.8791H40.5903C39.9901 35.8791 39.5038 35.3926 39.5038 34.7926C39.5038 34.1925 39.9901 33.7061 40.5903 33.7061H40.8834C41.4836 33.7061 41.9699 34.1925 41.9699 34.7926C41.9699 35.3926 41.4836 35.8791 40.8834 35.8791Z" fill="#487CD1"/>
<path d="M45.5216 35.8791H45.2285C44.6283 35.8791 44.142 35.3926 44.142 34.7926C44.142 34.1925 44.6283 33.7061 45.2285 33.7061H45.5216C46.1218 33.7061 46.6081 34.1925 46.6081 34.7926C46.6081 35.3926 46.1216 35.8791 45.5216 35.8791Z" fill="#487CD1"/>
<path d="M50.1598 35.8791H49.8669C49.2667 35.8791 48.7804 35.3926 48.7804 34.7926C48.7804 34.1925 49.2667 33.7061 49.8669 33.7061H50.1598C50.76 33.7061 51.2464 34.1925 51.2464 34.7926C51.2464 35.3926 50.76 35.8791 50.1598 35.8791Z" fill="#487CD1"/>
<path d="M17.692 39.9177H17.3989C16.7987 39.9177 16.3124 39.4312 16.3124 38.8311C16.3124 38.2311 16.7987 37.7446 17.3989 37.7446H17.692C18.2922 37.7446 18.7785 38.2311 18.7785 38.8311C18.7785 39.4312 18.2922 39.9177 17.692 39.9177Z" fill="#487CD1"/>
<path d="M22.3302 39.9177H22.0373C21.4371 39.9177 20.9508 39.4312 20.9508 38.8311C20.9508 38.2311 21.4371 37.7446 22.0373 37.7446H22.3302C22.9304 37.7446 23.4168 38.2311 23.4168 38.8311C23.4168 39.4312 22.9303 39.9177 22.3302 39.9177Z" fill="#487CD1"/>
<path d="M26.9686 39.9177H26.6755C26.0753 39.9177 25.589 39.4312 25.589 38.8311C25.589 38.2311 26.0753 37.7446 26.6755 37.7446H26.9686C27.5688 37.7446 28.0551 38.2311 28.0551 38.8311C28.0551 39.4312 27.5688 39.9177 26.9686 39.9177Z" fill="#487CD1"/>
<path d="M31.6068 39.9177H31.3137C30.7135 39.9177 30.2272 39.4312 30.2272 38.8311C30.2272 38.2311 30.7135 37.7446 31.3137 37.7446H31.6068C32.207 37.7446 32.6933 38.2311 32.6933 38.8311C32.6933 39.4312 32.2068 39.9177 31.6068 39.9177Z" fill="#487CD1"/>
<path d="M36.2448 39.9177H35.9519C35.3517 39.9177 34.8654 39.4312 34.8654 38.8311C34.8654 38.2311 35.3517 37.7446 35.9519 37.7446H36.2448C36.845 37.7446 37.3313 38.2311 37.3313 38.8311C37.3313 39.4312 36.845 39.9177 36.2448 39.9177Z" fill="#487CD1"/>
<path d="M40.8834 39.9177H40.5903C39.9901 39.9177 39.5038 39.4312 39.5038 38.8311C39.5038 38.2311 39.9901 37.7446 40.5903 37.7446H40.8834C41.4836 37.7446 41.9699 38.2311 41.9699 38.8311C41.9699 39.4312 41.4836 39.9177 40.8834 39.9177Z" fill="#487CD1"/>
<path d="M45.5216 39.9177H45.2285C44.6283 39.9177 44.142 39.4312 44.142 38.8311C44.142 38.2311 44.6283 37.7446 45.2285 37.7446H45.5216C46.1218 37.7446 46.6081 38.2311 46.6081 38.8311C46.6081 39.4312 46.1216 39.9177 45.5216 39.9177Z" fill="#487CD1"/>
</g>
<defs>
<clipPath id="clip0">
<rect width="72" height="72" fill="white"/>
</clipPath>
</defs>
</svg>
