<svg width="24" height="24" viewBox="0 0 24 24" fill="none" xmlns="http://www.w3.org/2000/svg">
<path d="M12 5C10.6155 5 9.26216 5.41054 8.11101 6.17971C6.95987 6.94888 6.06266 8.04213 5.53285 9.32122C5.00303 10.6003 4.86441 12.0078 5.13451 13.3656C5.4046 14.7235 6.07129 15.9708 7.05026 16.9497C8.02922 17.9287 9.2765 18.5954 10.6344 18.8655C11.9922 19.1356 13.3997 18.997 14.6788 18.4672C15.9579 17.9373 17.0511 17.0401 17.8203 15.889C18.5895 14.7378 19 13.3845 19 12C19 10.1435 18.2625 8.36301 16.9497 7.05025C15.637 5.7375 13.8565 5 12 5ZM12 6.08C12.61 6.08 13.52 7.33 14 9.43V9.61H10V9.43C10.41 7.52 11.27 6.08 12 6.08ZM14.16 10.69V10.83C14.16 11.22 14.22 11.6 14.22 12C14.22 12.4 14.22 12.82 14.16 13.17V13.31H9.81V13.17C9.81 12.81 9.81 12.4 9.81 12C9.81 11.6 9.81 11.22 9.81 10.83V10.69H14.16ZM6.67 9.39C7.29605 8.15257 8.33141 7.17022 9.6 6.61L10 6.43L9.79 6.82C9.35712 7.66045 9.0505 8.56012 8.88 9.49V9.61H6.56L6.67 9.39ZM6.2 13.19C6.11253 12.7996 6.07225 12.4 6.08 12C6.07515 11.6001 6.1154 11.2009 6.2 10.81V10.69H8.73V10.86C8.73 11.26 8.73 11.63 8.73 12C8.73 12.37 8.73 12.77 8.73 13.14V13.31H6.23L6.2 13.19ZM9.6 17.42C8.32931 16.8481 7.29455 15.8557 6.67 14.61L6.56 14.39H8.87V14.51C9.03453 15.451 9.34138 16.3614 9.78 17.21L10 17.6L9.6 17.42ZM12 17.92C11.27 17.92 10.41 16.48 10 14.57V14.39H14V14.57C13.52 16.67 12.62 17.92 12 17.92ZM17.3 14.61C16.6755 15.8557 15.6407 16.8481 14.37 17.42L14 17.6L14.21 17.21C14.6471 16.3607 14.9538 15.4506 15.12 14.51V14.39H17.43L17.3 14.61ZM17.8 10.82C17.8696 11.2098 17.9097 11.6042 17.92 12C17.9135 12.396 17.8733 12.7908 17.8 13.18V13.31H15.24V13.14C15.24 12.77 15.3 12.4 15.3 12C15.3 11.6 15.3 11.31 15.25 10.94V10.69H17.79L17.8 10.82ZM17.41 9.61H15.1V9.49C14.9278 8.56056 14.6213 7.66113 14.19 6.82L14 6.43L14.41 6.61C15.6637 7.1778 16.684 8.15931 17.3 9.39L17.41 9.61Z" fill="white"/>
</svg>
