<svg width="8" height="5" viewBox="0 0 8 5" fill="none" xmlns="http://www.w3.org/2000/svg">
<path d="M7.90788 0.754339C7.96929 0.815755 8 0.907878 8 1C8 1.12283 7.96929 1.18425 7.90788 1.24566L4.24566 4.90788C4.18425 4.96929 4.12283 5 4 5C3.90788 5 3.81575 4.96929 3.75434 4.90788L0.0921233 1.24566C0.0307078 1.18425 0 1.12283 0 1C0 0.907878 0.0307078 0.815755 0.0921233 0.754339L0.337785 0.508677C0.399201 0.447261 0.491324 0.416554 0.583447 0.416554C0.706278 0.416554 0.798401 0.447261 0.859817 0.508677L4 3.67957L7.14018 0.508677C7.23231 0.447261 7.32443 0.416554 7.41655 0.416554C7.53938 0.416554 7.6008 0.447261 7.66222 0.508677L7.90788 0.754339Z" fill="white"/>
</svg>
