<svg width="12" height="10" viewBox="0 0 12 10" fill="none" xmlns="http://www.w3.org/2000/svg">
<path d="M11.9079 1.00434C11.9693 1.06575 12 1.15788 12 1.25C12 1.37283 11.9693 1.43425 11.9079 1.49566L4.24566 9.15788C4.18425 9.21929 4.12283 9.25 4 9.25C3.90788 9.25 3.81575 9.21929 3.75434 9.15788L0.0921232 5.49566C0.0307077 5.43425 -1.69476e-07 5.37283 -1.74846e-07 5.25C-1.78872e-07 5.15788 0.0307077 5.06575 0.0921231 5.00434L0.337785 4.75868C0.3992 4.69726 0.491324 4.66655 0.583447 4.66655C0.706278 4.66655 0.798401 4.69726 0.859817 4.75868L4 7.92957L11.1402 0.758677C11.2323 0.697261 11.3244 0.666554 11.4166 0.666554C11.5394 0.666554 11.6008 0.697261 11.6622 0.758677L11.9079 1.00434Z" fill="#4E7FCE"/>
</svg>
