<svg width="18" height="18" viewBox="0 0 18 18" fill="none" xmlns="http://www.w3.org/2000/svg">
<path d="M12.9079 6.75434C12.9693 6.81575 13 6.90788 13 7C13 7.12283 12.9693 7.18425 12.9079 7.24566L9.24566 10.9079C9.18425 10.9693 9.12283 11 9 11C8.90788 11 8.81575 10.9693 8.75434 10.9079L5.09212 7.24566C5.03071 7.18425 5 7.12283 5 7C5 6.90788 5.03071 6.81575 5.09212 6.75434L5.33779 6.50868C5.3992 6.44726 5.49132 6.41655 5.58345 6.41655C5.70628 6.41655 5.7984 6.44726 5.85982 6.50868L9 9.67957L12.1402 6.50868C12.2323 6.44726 12.3244 6.41655 12.4166 6.41655C12.5394 6.41655 12.6008 6.44726 12.6622 6.50868L12.9079 6.75434Z" fill="white"/>
</svg>
