<svg width="124" height="138" viewBox="0 0 124 138" fill="none" xmlns="http://www.w3.org/2000/svg">
<g clip-path="url(#clip0)">
<path d="M118.184 49.8171C128.967 83.8364 119.103 117.354 96.1174 124.626C73.1313 131.898 45.7988 110.25 35.0163 76.2301C24.2337 42.2108 34.0968 8.6929 57.0829 1.42095C80.069 -5.85101 107.401 15.7977 118.184 49.8171Z" fill="url(#paint0_linear)"/>
<path d="M116.847 50.235C127.629 84.338 117.766 117.856 94.7801 125.211C71.794 132.483 44.3779 110.751 33.5954 76.6481C22.8128 42.5452 32.6759 8.94371 55.662 1.67175C78.6481 -5.60021 106.064 16.1321 116.847 50.235Z" fill="url(#paint1_linear)"/>
<path d="M115.509 50.7365C126.376 84.9231 116.512 118.525 93.5263 125.796C70.5403 133.068 43.1242 111.253 32.3416 77.066C21.559 42.8795 31.3386 9.27803 54.3246 2.00607C77.3107 -5.26588 104.643 16.55 115.509 50.7365Z" fill="url(#paint2_linear)"/>
<path d="M114.172 51.1544C125.038 85.4246 115.175 119.11 92.1889 126.382C69.2029 133.654 41.7867 111.754 30.9206 77.5675C20.0545 43.3809 29.9176 9.61232 52.9036 2.34036C75.8897 -4.93159 103.306 16.8843 114.172 51.1544Z" fill="url(#paint3_linear)"/>
<path d="M112.835 51.5723C123.701 85.926 113.921 119.611 90.9352 126.967C67.9491 134.322 40.533 112.256 29.5833 77.9018C18.6335 43.5481 28.4967 9.86305 51.4827 2.59109C74.4688 -4.68087 101.968 17.2186 112.835 51.5723Z" fill="url(#paint4_linear)"/>
<path d="M111.497 51.9902C122.363 86.4276 112.584 120.196 89.6814 127.468C66.779 134.74 39.1957 112.757 28.3295 78.3197C17.4634 43.8824 27.1593 10.1138 50.1454 2.84184C73.1315 -4.43011 100.548 17.5529 111.497 51.9902Z" fill="url(#paint5_linear)"/>
<path d="M110.16 52.4083C121.11 86.9292 111.33 120.781 88.344 128.053C65.3579 135.325 37.8582 113.259 26.9085 78.8214C15.9588 44.384 25.7383 10.4482 48.7243 3.17629C71.7104 -4.09566 99.2101 17.971 110.16 52.4083Z" fill="url(#paint6_linear)"/>
<path d="M108.822 52.8261C119.772 87.4306 110.076 121.366 87.0902 128.638C64.1041 135.91 36.6044 113.76 25.6547 79.2392C14.7049 44.7183 24.4009 10.6989 47.387 3.42696C70.373 -3.84499 97.8727 18.3052 108.822 52.8261Z" fill="url(#paint7_linear)"/>
<path d="M107.485 53.3277C118.435 88.0157 108.739 121.952 85.7528 129.223C62.7668 136.495 35.2671 114.345 24.2338 79.6572C13.2005 44.9691 22.98 11.0333 45.9661 3.76133C68.9521 -3.51063 96.4518 18.6396 107.485 53.3277Z" fill="url(#paint8_linear)"/>
<path d="M106.064 53.7456C117.098 88.4337 107.402 122.537 84.4155 129.809C61.4295 137.081 33.9298 114.847 22.8965 80.0751C11.8632 45.3035 21.5591 11.2841 44.5452 4.01215C67.5312 -3.25981 95.1145 18.974 106.064 53.7456Z" fill="url(#paint9_linear)"/>
<path d="M104.727 54.1635C115.76 88.9351 106.064 123.122 83.0781 130.394C60.0921 137.666 32.5088 115.348 21.4755 80.5766C10.4422 45.8049 20.2217 11.6184 43.2078 4.34642C66.1938 -2.92554 93.6935 19.3918 104.727 54.1635Z" fill="url(#paint10_linear)"/>
<path d="M103.389 54.5814C114.423 89.4367 104.81 123.623 81.8243 130.895C58.8382 138.251 31.2549 115.85 20.2216 80.9945C9.18829 46.1392 18.8006 11.8691 41.7867 4.59716C64.7728 -2.6748 92.3561 19.7262 103.389 54.5814Z" fill="url(#paint11_linear)"/>
<path d="M102.052 54.9994C113.169 89.9382 103.473 124.208 80.4869 131.48C57.5009 138.752 29.9176 116.351 18.8007 81.3289C7.68379 46.3065 17.4633 12.2035 40.3658 4.93158C63.2683 -2.34038 91.0187 20.0606 102.052 54.9994Z" fill="url(#paint12_linear)"/>
<path d="M100.715 55.4174C111.832 90.4398 102.219 124.793 79.2332 132.065C56.2471 139.337 28.6638 116.853 17.5469 81.8304C6.43002 46.808 16.0424 12.4543 39.0284 5.18234C62.0145 -2.08961 89.5978 20.3949 100.715 55.4174Z" fill="url(#paint13_linear)"/>
<path d="M99.3773 55.9188C110.494 91.0248 100.882 125.379 77.8958 132.734C54.9097 140.09 27.3264 117.354 16.2095 82.2483C5.09265 47.1423 14.6214 12.7886 37.6075 5.5166C60.5936 -1.75536 88.2604 20.7292 99.3773 55.9188Z" fill="url(#paint14_linear)"/>
<path d="M98.0399 56.3368C109.157 91.5264 99.6281 125.964 76.642 133.236C53.6559 140.508 25.989 117.856 14.8721 82.6663C3.75525 47.4767 13.284 13.0394 36.2701 5.76743C59.2562 -1.50452 86.923 21.1472 98.0399 56.3368Z" fill="url(#paint15_linear)"/>
<path d="M96.7026 56.7547C107.903 92.0278 98.2907 126.549 75.3046 133.821C52.3186 141.093 24.6517 118.441 13.4512 83.1678C2.25076 47.8946 11.8631 13.3737 34.8492 6.10174C57.8352 -1.17022 85.5021 21.4815 96.7026 56.7547Z" fill="url(#paint16_linear)"/>
<path d="M95.3652 57.1727C106.566 92.5294 97.037 127.05 74.0509 134.406C51.0648 141.761 23.398 118.942 12.1975 83.5857C0.996998 48.229 10.5258 13.7081 33.5118 6.35255C56.4979 -1.00299 84.1648 21.8159 95.3652 57.1727Z" fill="url(#paint17_linear)"/>
<path d="M94.0278 57.5906C105.228 93.0309 95.6995 127.635 72.7135 134.907C49.7274 142.179 21.9769 119.36 10.7765 83.9201C-0.424021 48.4797 9.10475 13.9588 32.0908 6.68687C55.0769 -0.585084 82.7437 22.1502 94.0278 57.5906Z" fill="url(#paint18_linear)"/>
<path d="M92.6905 58.092C103.975 93.6159 94.4458 128.304 71.4597 135.576C48.4736 142.848 20.7232 119.945 9.4391 84.4215C-1.84497 48.8976 7.6838 14.2095 30.6699 6.93754C53.6559 -0.334418 81.4064 22.5681 92.6905 58.092Z" fill="url(#paint19_linear)"/>
<path d="M91.3531 58.51C102.637 94.1175 93.1084 128.889 70.2059 136.161C47.3034 143.433 19.4694 120.531 8.18531 84.9231C-3.09876 49.3156 6.34643 14.5439 29.3325 7.27197C52.3186 1.33514e-05 80.069 22.9025 91.3531 58.51Z" fill="url(#paint20_linear)"/>
<path d="M90.0157 58.9279C101.3 94.619 91.8546 129.391 68.8685 136.663C45.8825 143.935 18.132 120.949 6.76437 85.2574C-4.60329 49.5663 4.92548 14.7947 27.9115 7.52274C50.8976 0.250784 78.6481 23.2369 90.0157 58.9279Z" fill="url(#paint21_linear)"/>
<path d="M29.6669 36.1926L74.2181 83.4186L31.3386 98.7147L29.6669 36.1926Z" fill="url(#paint22_linear)"/>
<path d="M29.0818 36.3599L73.633 83.5858L30.8371 98.882L29.0818 36.3599Z" fill="url(#paint23_linear)"/>
<path d="M28.5803 36.527L73.1315 83.7529L30.252 99.1327L28.5803 36.527Z" fill="url(#paint24_linear)"/>
<path d="M27.9952 36.6941L72.63 84.0036L29.7505 99.2998L27.9952 36.6941Z" fill="url(#paint25_linear)"/>
<path d="M27.4937 36.8613L72.1284 84.1708L29.1654 99.467L27.4937 36.8613Z" fill="url(#paint26_linear)"/>
<path d="M26.9086 37.0284L71.5433 84.338L28.6639 99.7177L26.9086 37.0284Z" fill="url(#paint27_linear)"/>
<path d="M26.3235 37.1957L71.0418 84.5052L28.0788 99.885L26.3235 37.1957Z" fill="url(#paint28_linear)"/>
<path d="M25.822 37.3628L70.5404 84.7559L27.4937 100.052L25.822 37.3628Z" fill="url(#paint29_linear)"/>
<path d="M25.2368 37.53L70.0387 84.9231L26.9921 100.303L25.2368 37.53Z" fill="url(#paint30_linear)"/>
<path d="M24.7354 37.6136L69.4537 85.0903L26.4071 100.47L24.7354 37.6136Z" fill="url(#paint31_linear)"/>
<path d="M24.1503 37.7808L68.9522 85.2574L25.9056 100.637L24.1503 37.7808Z" fill="url(#paint32_linear)"/>
<path d="M23.5652 37.948L68.4507 85.5083L25.3205 100.888L23.5652 37.948Z" fill="url(#paint33_linear)"/>
<path d="M23.0636 38.1151L67.9491 85.6754L24.8189 101.055L23.0636 38.1151Z" fill="url(#paint34_linear)"/>
<path d="M22.4785 38.2822L67.364 85.8425L24.2338 101.222L22.4785 38.2822Z" fill="url(#paint35_linear)"/>
<path d="M21.9771 38.4495L66.8626 86.0097L23.6488 101.473L21.9771 38.4495Z" fill="url(#paint36_linear)"/>
<path d="M21.392 38.6166L66.3611 86.1768L23.1473 101.64L21.392 38.6166Z" fill="url(#paint37_linear)"/>
<path d="M20.8904 38.7838L65.8595 86.4277L22.5621 101.891L20.8904 38.7838Z" fill="url(#paint38_linear)"/>
<path d="M20.3053 38.8674L65.2744 86.5949L22.0606 102.058L20.3053 38.8674Z" fill="url(#paint39_linear)"/>
<path d="M19.7202 39.0345L64.7729 86.762L21.4755 102.225L19.7202 39.0345Z" fill="url(#paint40_linear)"/>
<path d="M19.2186 39.2018L64.2713 86.9292L20.9739 102.476L19.2186 39.2018Z" fill="url(#paint41_linear)"/>
<path d="M18.6335 39.3689L63.7698 87.1799L20.3888 102.643L18.6335 39.3689Z" fill="url(#paint42_linear)"/>
<path d="M18.1321 39.536L63.1848 87.347L19.8874 102.81L18.1321 39.536Z" fill="url(#paint43_linear)"/>
<path d="M36.6881 6.1853V6.68682C57.501 6.68682 79.8183 28.9206 89.4307 59.1786C94.613 75.5614 96.1176 92.6965 92.6905 106.906C96.034 93.1144 95.4489 76.1465 90.0158 59.0115C80.0691 27.6668 57.5845 6.1853 36.6881 6.1853C33.679 6.1853 30.7535 6.60323 27.9116 7.52267C30.6699 6.68682 33.7626 6.60323 36.6881 6.60323V6.1853Z" fill="#B8C9EA"/>
<path d="M63.1848 87.347L18.1321 40.957V39.536L63.1848 87.347Z" fill="#FFD9A8"/>
</g>
<defs>
<linearGradient id="paint0_linear" x1="36.0866" y1="19.5782" x2="129.165" y2="90.6502" gradientUnits="userSpaceOnUse">
<stop stop-color="#7899D0"/>
<stop offset="1" stop-color="#4774BE"/>
</linearGradient>
<linearGradient id="paint1_linear" x1="35.0239" y1="19.301" x2="127.773" y2="91.8792" gradientUnits="userSpaceOnUse">
<stop stop-color="#799AD0"/>
<stop offset="1" stop-color="#4775BF"/>
</linearGradient>
<linearGradient id="paint2_linear" x1="33.9687" y1="19.033" x2="126.355" y2="93.1284" gradientUnits="userSpaceOnUse">
<stop stop-color="#7B9BD1"/>
<stop offset="1" stop-color="#4875C0"/>
</linearGradient>
<linearGradient id="paint3_linear" x1="32.921" y1="18.7629" x2="124.924" y2="94.3872" gradientUnits="userSpaceOnUse">
<stop stop-color="#7C9CD1"/>
<stop offset="1" stop-color="#4876C0"/>
</linearGradient>
<linearGradient id="paint4_linear" x1="31.8876" y1="18.5033" x2="123.463" y2="95.665" gradientUnits="userSpaceOnUse">
<stop stop-color="#7D9DD2"/>
<stop offset="1" stop-color="#4876C1"/>
</linearGradient>
<linearGradient id="paint5_linear" x1="30.8554" y1="18.2485" x2="121.983" y2="96.9585" gradientUnits="userSpaceOnUse">
<stop stop-color="#7E9ED2"/>
<stop offset="1" stop-color="#4977C2"/>
</linearGradient>
<linearGradient id="paint6_linear" x1="29.8304" y1="17.9913" x2="120.488" y2="98.2607" gradientUnits="userSpaceOnUse">
<stop stop-color="#809FD3"/>
<stop offset="1" stop-color="#4977C3"/>
</linearGradient>
<linearGradient id="paint7_linear" x1="28.8131" y1="17.7462" x2="118.961" y2="99.5824" gradientUnits="userSpaceOnUse">
<stop stop-color="#81A0D3"/>
<stop offset="1" stop-color="#4978C3"/>
</linearGradient>
<linearGradient id="paint8_linear" x1="27.8033" y1="17.5066" x2="117.41" y2="100.918" gradientUnits="userSpaceOnUse">
<stop stop-color="#82A1D4"/>
<stop offset="1" stop-color="#4A78C4"/>
</linearGradient>
<linearGradient id="paint9_linear" x1="26.8092" y1="17.2645" x2="115.841" y2="102.258" gradientUnits="userSpaceOnUse">
<stop stop-color="#84A2D4"/>
<stop offset="1" stop-color="#4A79C5"/>
</linearGradient>
<linearGradient id="paint10_linear" x1="25.8143" y1="17.0362" x2="114.238" y2="103.619" gradientUnits="userSpaceOnUse">
<stop stop-color="#85A3D5"/>
<stop offset="1" stop-color="#4A79C6"/>
</linearGradient>
<linearGradient id="paint11_linear" x1="24.8268" y1="16.8141" x2="112.608" y2="104.993" gradientUnits="userSpaceOnUse">
<stop stop-color="#86A4D5"/>
<stop offset="1" stop-color="#4B7AC6"/>
</linearGradient>
<linearGradient id="paint12_linear" x1="23.8467" y1="16.5892" x2="110.958" y2="106.371" gradientUnits="userSpaceOnUse">
<stop stop-color="#87A5D6"/>
<stop offset="1" stop-color="#4B7AC7"/>
</linearGradient>
<linearGradient id="paint13_linear" x1="22.8833" y1="16.3799" x2="109.271" y2="107.764" gradientUnits="userSpaceOnUse">
<stop stop-color="#89A6D6"/>
<stop offset="0.0454013" stop-color="#86A4D5"/>
<stop offset="1" stop-color="#4B7BC8"/>
</linearGradient>
<linearGradient id="paint14_linear" x1="21.9178" y1="16.1774" x2="107.552" y2="109.17" gradientUnits="userSpaceOnUse">
<stop stop-color="#8AA7D7"/>
<stop offset="0.1095" stop-color="#83A2D5"/>
<stop offset="1" stop-color="#4C7BC9"/>
</linearGradient>
<linearGradient id="paint15_linear" x1="20.9595" y1="15.972" x2="105.811" y2="110.579" gradientUnits="userSpaceOnUse">
<stop stop-color="#8BA8D7"/>
<stop offset="0.1776" stop-color="#7FA0D4"/>
<stop offset="1" stop-color="#4C7CC9"/>
</linearGradient>
<linearGradient id="paint16_linear" x1="20.0083" y1="15.7838" x2="104.029" y2="112.002" gradientUnits="userSpaceOnUse">
<stop stop-color="#8DA9D8"/>
<stop offset="0.2479" stop-color="#7C9DD4"/>
<stop offset="1" stop-color="#4C7CCA"/>
</linearGradient>
<linearGradient id="paint17_linear" x1="19.0748" y1="15.6033" x2="102.217" y2="113.43" gradientUnits="userSpaceOnUse">
<stop stop-color="#8EAAD8"/>
<stop offset="0.2887" stop-color="#7A9CD4"/>
<stop offset="1" stop-color="#4D7DCB"/>
</linearGradient>
<linearGradient id="paint18_linear" x1="18.1377" y1="15.4194" x2="100.377" y2="114.861" gradientUnits="userSpaceOnUse">
<stop stop-color="#8FABD9"/>
<stop offset="0.3345" stop-color="#789BD4"/>
<stop offset="1" stop-color="#4D7DCC"/>
</linearGradient>
<linearGradient id="paint19_linear" x1="17.2076" y1="15.2544" x2="98.4935" y2="116.305" gradientUnits="userSpaceOnUse">
<stop stop-color="#90ACD9"/>
<stop offset="0.3752" stop-color="#769AD4"/>
<stop offset="1" stop-color="#4D7ECC"/>
</linearGradient>
<linearGradient id="paint20_linear" x1="16.2842" y1="15.0978" x2="96.5739" y2="117.753" gradientUnits="userSpaceOnUse">
<stop stop-color="#92ADDA"/>
<stop offset="0.4115" stop-color="#7599D4"/>
<stop offset="1" stop-color="#4E7ECD"/>
</linearGradient>
<linearGradient id="paint21_linear" x1="15.3795" y1="14.9378" x2="94.6321" y2="119.194" gradientUnits="userSpaceOnUse">
<stop stop-color="#93AEDA"/>
<stop offset="0.444" stop-color="#7398D4"/>
<stop offset="1" stop-color="#4E7FCE"/>
</linearGradient>
<linearGradient id="paint22_linear" x1="23.2572" y1="39.921" x2="54.8188" y2="94.5874" gradientUnits="userSpaceOnUse">
<stop stop-color="#EC8F17"/>
<stop offset="1" stop-color="#DB8B23"/>
</linearGradient>
<linearGradient id="paint23_linear" x1="22.7032" y1="40.081" x2="54.2847" y2="94.7818" gradientUnits="userSpaceOnUse">
<stop stop-color="#ED911A"/>
<stop offset="1" stop-color="#DD8B22"/>
</linearGradient>
<linearGradient id="paint24_linear" x1="22.1493" y1="40.2409" x2="53.7507" y2="94.9761" gradientUnits="userSpaceOnUse">
<stop stop-color="#EE921D"/>
<stop offset="1" stop-color="#DE8C21"/>
</linearGradient>
<linearGradient id="paint25_linear" x1="21.5953" y1="40.401" x2="53.2166" y2="95.1705" gradientUnits="userSpaceOnUse">
<stop stop-color="#EF941F"/>
<stop offset="1" stop-color="#E08C20"/>
</linearGradient>
<linearGradient id="paint26_linear" x1="21.0413" y1="40.561" x2="52.6824" y2="95.3649" gradientUnits="userSpaceOnUse">
<stop stop-color="#F09622"/>
<stop offset="1" stop-color="#E28D1F"/>
</linearGradient>
<linearGradient id="paint27_linear" x1="20.4874" y1="40.7209" x2="52.1483" y2="95.5592" gradientUnits="userSpaceOnUse">
<stop stop-color="#F19825"/>
<stop offset="1" stop-color="#E38D1E"/>
</linearGradient>
<linearGradient id="paint28_linear" x1="19.9334" y1="40.881" x2="51.6142" y2="95.7537" gradientUnits="userSpaceOnUse">
<stop stop-color="#F19928"/>
<stop offset="1" stop-color="#E58E1D"/>
</linearGradient>
<linearGradient id="paint29_linear" x1="19.3795" y1="41.0409" x2="51.0801" y2="95.948" gradientUnits="userSpaceOnUse">
<stop stop-color="#F29B2A"/>
<stop offset="1" stop-color="#E78E1C"/>
</linearGradient>
<linearGradient id="paint30_linear" x1="18.8254" y1="41.2009" x2="50.5458" y2="96.1425" gradientUnits="userSpaceOnUse">
<stop stop-color="#F39D2D"/>
<stop offset="1" stop-color="#E88F1B"/>
</linearGradient>
<linearGradient id="paint31_linear" x1="18.2714" y1="41.361" x2="50.0117" y2="96.3369" gradientUnits="userSpaceOnUse">
<stop stop-color="#F49E30"/>
<stop offset="1" stop-color="#EA8F1A"/>
</linearGradient>
<linearGradient id="paint32_linear" x1="17.7175" y1="41.521" x2="49.4777" y2="96.5312" gradientUnits="userSpaceOnUse">
<stop stop-color="#F5A033"/>
<stop offset="1" stop-color="#EC9019"/>
</linearGradient>
<linearGradient id="paint33_linear" x1="17.1635" y1="41.681" x2="48.9436" y2="96.7257" gradientUnits="userSpaceOnUse">
<stop stop-color="#F6A235"/>
<stop offset="1" stop-color="#ED9017"/>
</linearGradient>
<linearGradient id="paint34_linear" x1="16.6094" y1="41.8409" x2="48.4094" y2="96.92" gradientUnits="userSpaceOnUse">
<stop stop-color="#F7A438"/>
<stop offset="1" stop-color="#EF9116"/>
</linearGradient>
<linearGradient id="paint35_linear" x1="16.0555" y1="42.0009" x2="47.8753" y2="97.1144" gradientUnits="userSpaceOnUse">
<stop stop-color="#F8A53B"/>
<stop offset="0.0316293" stop-color="#F8A43A"/>
<stop offset="1" stop-color="#F19115"/>
</linearGradient>
<linearGradient id="paint36_linear" x1="15.5016" y1="42.1609" x2="47.3412" y2="97.3088" gradientUnits="userSpaceOnUse">
<stop stop-color="#F9A73E"/>
<stop offset="0.1177" stop-color="#F8A439"/>
<stop offset="1" stop-color="#F29214"/>
</linearGradient>
<linearGradient id="paint37_linear" x1="14.9477" y1="42.3209" x2="46.8071" y2="97.5031" gradientUnits="userSpaceOnUse">
<stop stop-color="#FAA940"/>
<stop offset="0.1725" stop-color="#F9A538"/>
<stop offset="1" stop-color="#F49213"/>
</linearGradient>
<linearGradient id="paint38_linear" x1="14.3936" y1="42.481" x2="46.2729" y2="97.6975" gradientUnits="userSpaceOnUse">
<stop stop-color="#FAAA43"/>
<stop offset="0.2356" stop-color="#F9A437"/>
<stop offset="1" stop-color="#F69312"/>
</linearGradient>
<linearGradient id="paint39_linear" x1="13.8396" y1="42.641" x2="45.7388" y2="97.892" gradientUnits="userSpaceOnUse">
<stop stop-color="#FBAC46"/>
<stop offset="0.2894" stop-color="#FAA436"/>
<stop offset="1" stop-color="#F79311"/>
</linearGradient>
<linearGradient id="paint40_linear" x1="13.2857" y1="42.8009" x2="45.2047" y2="98.0863" gradientUnits="userSpaceOnUse">
<stop stop-color="#FCAE49"/>
<stop offset="0.3359" stop-color="#FBA535"/>
<stop offset="1" stop-color="#F99410"/>
</linearGradient>
<linearGradient id="paint41_linear" x1="12.7316" y1="42.961" x2="44.6705" y2="98.2807" gradientUnits="userSpaceOnUse">
<stop stop-color="#FDB04B"/>
<stop offset="0.3668" stop-color="#FCA534"/>
<stop offset="1" stop-color="#FB940F"/>
</linearGradient>
<linearGradient id="paint42_linear" x1="12.1776" y1="43.121" x2="44.1364" y2="98.4751" gradientUnits="userSpaceOnUse">
<stop stop-color="#FEB14E"/>
<stop offset="0.4037" stop-color="#FDA533"/>
<stop offset="1" stop-color="#FC950E"/>
</linearGradient>
<linearGradient id="paint43_linear" x1="11.6238" y1="43.2809" x2="43.6023" y2="98.6694" gradientUnits="userSpaceOnUse">
<stop stop-color="#FFB351"/>
<stop offset="0.4365" stop-color="#FFA532"/>
<stop offset="1" stop-color="#FE950D"/>
</linearGradient>
<clipPath id="clip0">
<rect width="124" height="138" fill="white"/>
</clipPath>
</defs>
</svg>
