<svg width="6" height="4" viewBox="0 0 6 4" fill="none" xmlns="http://www.w3.org/2000/svg">
<path d="M0.212442 3.35984C0.187595 3.33499 0.175171 3.29772 0.175171 3.26045C0.175171 3.21075 0.187595 3.17348 0.212442 3.14863L2.82142 0.552075C2.84627 0.514804 2.87112 0.50238 2.92081 0.50238C2.95809 0.50238 2.99536 0.514804 3.0202 0.552075L5.62919 3.14863C5.65403 3.17348 5.66646 3.21075 5.66646 3.26045C5.66646 3.29772 5.65403 3.33499 5.62919 3.35984L5.38071 3.60831C5.35586 3.63316 5.31859 3.65801 5.28132 3.65801C5.23163 3.65801 5.19436 3.63316 5.16951 3.60831L2.92081 1.35962L0.67212 3.60831C0.634849 3.63316 0.597578 3.65801 0.560306 3.65801C0.510611 3.65801 0.485764 3.63316 0.460917 3.60831L0.212442 3.35984Z" fill="#282828"/>
</svg>
