<svg width="24" height="24" viewBox="0 0 24 24" fill="none" xmlns="http://www.w3.org/2000/svg">
<path d="M20.0687 7.6875C20.1625 7.3125 20.0687 7 19.5062 7H17.6625C17.1937 7 16.975 7.25 16.85 7.53125C16.85 7.53125 15.9125 9.8125 14.6 11.3125C14.1625 11.7188 13.975 11.875 13.725 11.875C13.6312 11.875 13.4437 11.7188 13.4437 11.3438V7.6875C13.4437 7.21875 13.3187 7 12.9125 7H10.0375C9.72498 7 9.56873 7.21875 9.56873 7.4375C9.56873 7.875 10.225 7.96875 10.2875 9.21875V11.9375C10.2875 12.5312 10.1937 12.6562 9.94373 12.6562C9.31873 12.6562 7.81873 10.3438 6.91248 7.71875C6.72498 7.21875 6.53748 7 6.06873 7H4.22498C3.72498 7 3.59998 7.25 3.59998 7.53125C3.59998 8.03125 4.22498 10.4375 6.50623 13.6562C8.03748 15.8438 10.1937 17 12.1312 17C13.2875 17 13.4437 16.75 13.4437 16.3125C13.4437 14.2188 13.35 14 13.9125 14C14.1937 14 14.6625 14.1562 15.7562 15.2188C17.0062 16.4688 17.225 17 17.9125 17H19.7562C20.2875 17 20.5375 16.75 20.3812 16.2188C20.0375 15.1562 17.6937 12.9062 17.5687 12.75C17.2875 12.4062 17.3812 12.25 17.5687 11.9375C17.5687 11.9375 19.8187 8.75 20.0687 7.6875Z" fill="#9BA0B9"/>
</svg>
