<svg width="16" height="16" viewBox="0 0 16 16" fill="none" xmlns="http://www.w3.org/2000/svg">
<path d="M5.33784 2.09212C5.39925 2.03071 5.49137 2 5.5835 2C5.70633 2 5.76774 2.03071 5.82916 2.09212L11.4914 7.75434C11.5528 7.81575 11.5835 7.87717 11.5835 8C11.5835 8.09212 11.5528 8.18425 11.4914 8.24566L5.82916 13.9079C5.76774 13.9693 5.70633 14 5.5835 14C5.49137 14 5.39925 13.9693 5.33784 13.9079L5.09217 13.6622C5.03076 13.6008 5.00005 13.5087 5.00005 13.4166C5.00005 13.2937 5.03076 13.2016 5.09217 13.1402L10.2631 8L5.09217 2.85982C5.03076 2.76769 5.00005 2.67557 5.00005 2.58345C5.00005 2.46062 5.03076 2.3992 5.09217 2.33778L5.33784 2.09212Z" fill="#4E7FCE"/>
</svg>
