<svg width="600" height="186" viewBox="0 0 600 186" fill="none" xmlns="http://www.w3.org/2000/svg">
    <g clip-path="url(#clip0)">
        <path d="M600 0.350098L395.261 92.6833L330 52.5384L600 0.350098Z" fill="url(#paint0_linear)"/>
        <path d="M427.171 112.241L447.038 124.491L409.775 154.651L427.171 112.241Z" fill="#4E7FCE"/>
        <path d="M600 0.350098L427.171 112.241L492.432 152.386L600 0.350098Z" fill="url(#paint1_linear)"/>
        <path d="M427.171 112.241L600 0.350098L395.261 92.6833L409.775 154.651L427.171 112.241Z" fill="url(#paint2_linear)"/>
        <path d="M392.379 90.8305L600 0.350098L395.261 92.6833L392.379 90.8305Z" fill="#B8C9EA"/>
        <path d="M427.171 112.241L600 0.350098L429.745 113.888L427.171 112.241Z" fill="#B8C9EA"/>
    </g>
    <path d="M403 159.5C345 197.5 284 192 191 145.5C124 112 65.5 114 0.5 145.501" stroke="url(#paint3_linear)" stroke-dasharray="8 8"/>
    <defs>
        <linearGradient id="paint0_linear" x1="489.139" y1="60.9481" x2="429.678" y2="-99.3644" gradientUnits="userSpaceOnUse">
            <stop stop-color="#93AEDA"/>
            <stop offset="0.444" stop-color="#7398D4"/>
            <stop offset="1" stop-color="#4E7FCE"/>
        </linearGradient>
        <linearGradient id="paint1_linear" x1="568.85" y1="91.7446" x2="522.403" y2="4.10265" gradientUnits="userSpaceOnUse">
            <stop stop-color="#93AEDA"/>
            <stop offset="0.444" stop-color="#7398D4"/>
            <stop offset="1" stop-color="#4E7FCE"/>
        </linearGradient>
        <linearGradient id="paint2_linear" x1="552.745" y1="148.598" x2="521.944" y2="1.09068" gradientUnits="userSpaceOnUse">
            <stop stop-color="#93AEDA"/>
            <stop offset="0.2889" stop-color="#7B9ED6"/>
            <stop offset="0.7478" stop-color="#5A87D0"/>
            <stop offset="1" stop-color="#4E7FCE"/>
        </linearGradient>
        <linearGradient id="paint3_linear" x1="12" y1="153" x2="406" y2="157.5" gradientUnits="userSpaceOnUse">
            <stop stop-color="#4E7FCE" stop-opacity="0"/>
            <stop offset="1" stop-color="#4E7FCE"/>
        </linearGradient>
        <clipPath id="clip0">
            <rect width="270" height="155" fill="white" transform="translate(330)"/>
        </clipPath>
    </defs>
</svg>
