<svg width="120" height="69" viewBox="0 0 120 69" fill="none" xmlns="http://www.w3.org/2000/svg">
<g clip-path="url(#clip0)">
<path d="M120 0.15625L29.005 41.1932L0 23.3511L120 0.15625Z" fill="url(#paint0_linear)"/>
<path d="M43.1873 49.8857L52.0169 55.3299L35.4557 68.7344L43.1873 49.8857Z" fill="#4E7FCE"/>
<path d="M120 0.15625L43.1871 49.8856L72.1921 67.7277L120 0.15625Z" fill="url(#paint1_linear)"/>
<path d="M43.1872 49.8856L120 0.15625L29.005 41.1932L35.4556 68.7342L43.1872 49.8856Z" fill="url(#paint2_linear)"/>
<path d="M27.724 40.3698L120 0.15625L29.005 41.1932L27.724 40.3698Z" fill="#B8C9EA"/>
<path d="M43.1871 49.8856L120 0.15625L44.3309 50.6176L43.1871 49.8856Z" fill="#B8C9EA"/>
</g>
<defs>
<linearGradient id="paint0_linear" x1="70.7283" y1="27.0887" x2="44.3013" y2="-44.1613" gradientUnits="userSpaceOnUse">
<stop stop-color="#93AEDA"/>
<stop offset="0.444" stop-color="#7398D4"/>
<stop offset="1" stop-color="#4E7FCE"/>
</linearGradient>
<linearGradient id="paint1_linear" x1="106.155" y1="40.776" x2="85.5122" y2="1.82405" gradientUnits="userSpaceOnUse">
<stop stop-color="#93AEDA"/>
<stop offset="0.444" stop-color="#7398D4"/>
<stop offset="1" stop-color="#4E7FCE"/>
</linearGradient>
<linearGradient id="paint2_linear" x1="98.9977" y1="66.0442" x2="85.3085" y2="0.485399" gradientUnits="userSpaceOnUse">
<stop stop-color="#93AEDA"/>
<stop offset="0.2889" stop-color="#7B9ED6"/>
<stop offset="0.7478" stop-color="#5A87D0"/>
<stop offset="1" stop-color="#4E7FCE"/>
</linearGradient>
<clipPath id="clip0">
<rect width="120" height="68.8889" fill="white"/>
</clipPath>
</defs>
</svg>
