<svg width="18" height="18" viewBox="0 0 18 18" fill="none" xmlns="http://www.w3.org/2000/svg">
<g clip-path="url(#clip0)">
<path d="M17.8415 3.57594L12.3825 8.99981L17.8415 14.4237C17.9402 14.2174 18.0001 13.9894 18.0001 13.7459V4.25371C18.0001 4.01019 17.9402 3.7822 17.8415 3.57594Z" fill="#4E7FCE"/>
<path d="M16.418 2.67188H1.58203C1.3385 2.67188 1.11051 2.73175 0.904253 2.83043L7.88147 9.7725C8.49839 10.3894 9.50161 10.3894 10.1185 9.7725L17.0957 2.83043C16.8895 2.73175 16.6615 2.67188 16.418 2.67188Z" fill="#4E7FCE"/>
<path d="M0.158555 3.57594C0.0598711 3.7822 0 4.01019 0 4.25371V13.7459C0 13.9894 0.0598711 14.2175 0.158555 14.4237L5.61758 8.99981L0.158555 3.57594Z" fill="#4E7FCE"/>
<path d="M11.6367 9.74579L10.8642 10.5183C9.8363 11.5462 8.16367 11.5462 7.13573 10.5183L6.36328 9.74579L0.904253 15.1697C1.11051 15.2683 1.3385 15.3282 1.58203 15.3282H16.418C16.6615 15.3282 16.8895 15.2683 17.0957 15.1697L11.6367 9.74579Z" fill="#4E7FCE"/>
</g>
<defs>
<clipPath id="clip0">
<rect width="18" height="18" fill="white"/>
</clipPath>
</defs>
</svg>
