<svg width="24" height="24" viewBox="0 0 24 24" fill="none" xmlns="http://www.w3.org/2000/svg">
<path d="M12.0167 8.13281C9.87388 8.13281 8.16629 9.87388 8.16629 11.9833C8.16629 14.1261 9.87388 15.8337 12.0167 15.8337C14.1261 15.8337 15.8672 14.1261 15.8672 11.9833C15.8672 9.87388 14.1261 8.13281 12.0167 8.13281ZM12.0167 14.4944C10.644 14.4944 9.50558 13.3895 9.50558 11.9833C9.50558 10.6105 10.6105 9.50558 12.0167 9.50558C13.3895 9.50558 14.4944 10.6105 14.4944 11.9833C14.4944 13.3895 13.3895 14.4944 12.0167 14.4944ZM16.9051 7.99888C16.9051 7.49665 16.5033 7.09487 16.0011 7.09487C15.4989 7.09487 15.0971 7.49665 15.0971 7.99888C15.0971 8.50112 15.4989 8.9029 16.0011 8.9029C16.5033 8.9029 16.9051 8.50112 16.9051 7.99888ZM19.4498 8.9029C19.3828 7.69754 19.115 6.62612 18.2444 5.75558C17.3739 4.88504 16.3025 4.61719 15.0971 4.55022C13.8583 4.48326 10.1417 4.48326 8.9029 4.55022C7.69754 4.61719 6.6596 4.88504 5.75558 5.75558C4.88504 6.62612 4.61719 7.69754 4.55022 8.9029C4.48326 10.1417 4.48326 13.8583 4.55022 15.0971C4.61719 16.3025 4.88504 17.3404 5.75558 18.2444C6.6596 19.115 7.69754 19.3828 8.9029 19.4498C10.1417 19.5167 13.8583 19.5167 15.0971 19.4498C16.3025 19.3828 17.3739 19.115 18.2444 18.2444C19.115 17.3404 19.3828 16.3025 19.4498 15.0971C19.5167 13.8583 19.5167 10.1417 19.4498 8.9029ZM17.8426 16.4029C17.6083 17.0725 17.0725 17.5748 16.4364 17.8426C15.4319 18.2444 13.0882 18.144 12.0167 18.144C10.9118 18.144 8.56808 18.2444 7.5971 17.8426C6.92746 17.5748 6.42522 17.0725 6.15737 16.4029C5.75558 15.4319 5.85603 13.0882 5.85603 11.9833C5.85603 10.9118 5.75558 8.56808 6.15737 7.56362C6.42522 6.92746 6.92746 6.42522 7.5971 6.15737C8.56808 5.75558 10.9118 5.85603 12.0167 5.85603C13.0882 5.85603 15.4319 5.75558 16.4364 6.15737C17.0725 6.39174 17.5748 6.92746 17.8426 7.56362C18.2444 8.56808 18.144 10.9118 18.144 11.9833C18.144 13.0882 18.2444 15.4319 17.8426 16.4029Z" fill="#9BA0B9"/>
</svg>
