<svg width="66" height="60" viewBox="0 0 66 60" fill="none" xmlns="http://www.w3.org/2000/svg">
<path d="M36.3967 1.64404V36.1622H16.8317L36.3967 1.64404Z" fill="#DFECFF"/>
<path d="M33.1877 7.30519V36.1622H36.3966V1.64404L33.1877 7.30519Z" fill="#B8C9EA"/>
<path d="M62.2518 42.5934H35.8708C35.8708 42.5934 45.0198 37.1566 38.6234 8.13379L62.2518 42.5934Z" fill="#DFECFF"/>
<path d="M38.4044 39.3887C37.1414 41.8379 35.8708 42.5934 35.8708 42.5934H62.2518L60.0544 39.3887H38.4044Z" fill="#B8C9EA"/>
<path d="M64.2643 46.5124C63.95 46.5124 63.6411 46.3625 63.45 46.0837L35.5839 5.44396C35.2758 4.99473 35.3902 4.38082 35.8396 4.07278C36.2889 3.76487 36.9028 3.87925 37.2107 4.32848L65.0768 44.9682C65.3849 45.4175 65.2705 46.0314 64.8211 46.3394C64.6507 46.4563 64.4564 46.5124 64.2643 46.5124Z" fill="#93AEDA"/>
<path d="M36.3965 42.699C35.8518 42.699 35.4102 42.2574 35.4102 41.7127V0.986291C35.4102 0.441444 35.8518 0 36.3965 0C36.9413 0 37.3828 0.441571 37.3828 0.986291V41.7126C37.3828 42.2574 36.9413 42.699 36.3965 42.699Z" fill="#93AEDA"/>
<path d="M64.8613 44.8699C63.9145 45.0697 60.9423 45.6165 60.9423 45.6165C60.9315 45.6997 60.9061 45.7836 60.8601 45.865C60.0492 47.3013 59.1838 48.7994 58.3285 50.2609C60.126 50.0044 61.8708 49.7274 63.5466 49.4275C63.549 49.4233 65.5911 45.8658 65.5911 45.8658C65.8782 45.3576 65.4326 44.7494 64.8613 44.8699Z" fill="#B8C9EA"/>
<path d="M36.3964 37.1484H15.2613C14.7165 37.1484 14.275 36.7068 14.275 36.1621C14.275 35.6172 14.7165 35.1758 15.2613 35.1758H36.3964C36.9411 35.1758 37.3827 35.6174 37.3827 36.1621C37.3827 36.7068 36.9411 37.1484 36.3964 37.1484Z" fill="#93AEDA"/>
<path d="M16.7147 50.8103L23.7732 41.081C24.1555 40.5541 24.7671 40.2422 25.4182 40.2422H38.2382C40.9393 40.2422 43.5608 41.157 45.6754 42.8376L53.2886 48.888L16.7147 50.8103Z" fill="#A4ACE3"/>
<path d="M63.546 49.4285H63.5464C63.5524 49.4181 63.5521 49.4186 63.546 49.4285Z" fill="#E6989E"/>
<path d="M1.93152 53.3864L4.92665 59.6278C5.03605 59.8558 5.2666 60.0008 5.51949 60.0008H56.4834C56.9414 60.0008 57.3659 59.7635 57.6047 59.3727C58.572 57.7905 63.3877 49.6893 63.546 49.4282C54.0696 51.1242 42.4174 51.2057 31.1832 51.7644C20.2355 52.3088 9.68474 53.3513 1.93152 53.3864Z" fill="#FFB351"/>
<path d="M33.4553 51.0665L47.9533 50.811C46.5622 49.7936 41.3368 44.0449 38.2381 44.0449H33.4553V51.0665Z" fill="#2E5CA9"/>
<path d="M31.4827 44.0444H26.6514C26.4436 44.0444 26.2484 44.144 26.1264 44.3123L21.0681 51.2846L31.4827 51.1009V44.0444Z" fill="#2E5CA9"/>
<path d="M58.3276 50.2609C60.1263 50.0043 61.8701 49.7272 63.5462 49.4272C61.0543 53.7089 58.5433 57.8374 57.605 59.3719C57.3663 59.7625 56.9412 59.9999 56.4842 59.9999H51.7519C52.2102 59.9999 52.6353 59.7625 52.874 59.3719C53.751 57.937 56.0016 54.2349 58.3276 50.2609Z" fill="#FE950D"/>
<path d="M1.93164 53.3854C17.6411 53.3143 44.8354 52.7758 63.5465 49.4271C64.2407 48.2345 64.934 47.0292 65.5911 45.8654C65.878 45.3571 65.4324 44.749 64.8612 44.8694C46.1866 48.8087 15.7633 49.1787 0.997685 49.1942C0.498029 49.1948 0.170967 49.7165 0.387221 50.1669L1.93164 53.3854Z" fill="#DFECFF"/>
<path d="M64.8614 44.8694C63.5751 45.1407 62.2601 45.3885 60.9494 45.6148C60.9471 45.6152 60.9448 45.6156 60.9426 45.6161C60.9317 45.6993 60.9063 45.7832 60.8603 45.8648C60.0495 47.3009 59.184 48.799 58.3287 50.2606C60.1262 50.004 61.871 49.7271 63.5468 49.4271C64.2115 48.285 64.9281 47.0404 65.5914 45.8654C65.878 45.3576 65.4321 44.749 64.8614 44.8694Z" fill="#B8C9EA"/>
</svg>
