<svg width="72" height="72" viewBox="0 0 72 72" fill="none" xmlns="http://www.w3.org/2000/svg">
<path d="M25.0885 41.0166H7.05723C6.0207 41.0166 5.17743 41.86 5.17743 42.8964V47.0424C5.17743 47.6002 5.62944 48.052 6.18705 48.052C6.74465 48.052 7.19667 47.6 7.19667 47.0424V43.0358H11.4778V47.0424C11.4778 47.6002 11.9298 48.052 12.4874 48.052C13.045 48.052 13.4971 47.6 13.4971 47.0424V43.0358H17.7782V47.0424C17.7782 47.6002 18.2302 48.052 18.7878 48.052C19.3454 48.052 19.7974 47.6 19.7974 47.0424V43.0358H25.0882C25.6458 43.0358 26.0978 42.5838 26.0978 42.0262C26.0978 41.4686 25.6461 41.0166 25.0885 41.0166Z" fill="#8FACE0"/>
<path d="M27.9361 35.2604C27.3785 35.2604 26.9265 34.8083 26.9265 34.2507V28.8245L24.9869 27.3997C24.5375 27.0696 24.4408 26.4376 24.771 25.9882C25.1013 25.539 25.733 25.4419 26.1825 25.7723L28.1765 27.2371C28.6583 27.591 28.9458 28.1592 28.9458 28.7569V34.2507C28.9457 34.8083 28.4937 35.2604 27.9361 35.2604Z" fill="#4E7FCE"/>
<path d="M33.1398 27.1514L35.1453 34.2506H45.1929L47.1983 27.1514H33.1398Z" fill="#93AEDA"/>
<path d="M43.8289 27.1514L41.8234 34.2506H45.193L47.1984 27.1514H43.8289Z" fill="#717ED4"/>
<path d="M40.169 27.1705C39.6113 27.1705 39.1594 26.7185 39.1594 26.1609V10.0096C39.1594 9.45189 39.6114 9 40.169 9C40.7266 9 41.1787 9.45202 41.1787 10.0096V26.1609C41.1788 26.7185 40.7268 27.1705 40.169 27.1705Z" fill="#8FACE0"/>
<path d="M47.7876 23.1768H32.5506C32.2827 23.1768 32.0892 23.4328 32.162 23.6905L33.1399 27.1519H47.1985L48.1762 23.6905C48.249 23.4328 48.0553 23.1768 47.7876 23.1768Z" fill="#DFECFF"/>
<path d="M47.7876 23.1768H44.4179C44.6857 23.1768 44.8793 23.4328 44.8065 23.6905L43.8287 27.1519H47.1983L48.1761 23.6905C48.249 23.4328 48.0553 23.1768 47.7876 23.1768Z" fill="#B8C9EA"/>
<path d="M39.1781 34.2506H41.1601C41.172 34.1885 41.1788 34.1246 41.1788 34.0591V27.1514H39.1594V34.0591C39.1594 34.1246 39.1662 34.1885 39.1781 34.2506Z" fill="#DFECFF"/>
<path d="M25.0886 48.4264V34.9236C25.0886 34.5518 25.39 34.2505 25.7617 34.2505H48.4881C49.2645 34.2505 49.9752 34.6862 50.3274 35.378L56.9708 48.4264H25.0886Z" fill="#DFECFF"/>
<path d="M50.3275 35.378C49.9752 34.6862 49.2645 34.2505 48.4882 34.2505H44.8221C45.5985 34.2505 46.3093 34.6862 46.6614 35.378L53.3049 48.4264H56.9709L50.3275 35.378Z" fill="#B8C9EA"/>
<path d="M44.3753 38.9763L36.949 44.0131C36.8152 44.1039 36.6573 44.1524 36.4956 44.1524H25.0886V48.427H56.971L52.1002 38.8604H44.7531C44.6183 38.8602 44.4867 38.9007 44.3753 38.9763Z" fill="#B8C9EA"/>
<path d="M67.1078 48.4268V51.7939C67.1078 52.8182 66.7333 53.8059 66.0557 54.5739C64.8948 55.8898 63.0617 58.172 62.0858 60.4502C61.4237 61.9961 59.9069 63.0002 58.2251 63.0002H25.6411C24.9781 63.0002 24.3231 62.8594 23.7186 62.587C20.7849 61.2654 11.4645 57.1614 6.36494 56.0142C5.10873 55.7315 4.2132 54.6222 4.2132 53.3346V49.9573L67.1078 48.4268Z" fill="#FFB351"/>
<path d="M66.6023 53.7906C66.8952 53.2735 67.1078 52.5064 67.1078 51.847V48.4268L38.2905 49.145L37.3524 49.7811C37.2187 49.8718 37.0607 49.9573 36.8992 49.9573H4.2132V53.3346C4.2132 53.7128 4.29226 54.0747 4.43326 54.4057H61.9187C62.1798 54.4057 62.3255 54.7069 62.1624 54.9107C61.2811 56.0115 59.2254 58.6685 58.4623 60.4503C57.8001 61.9963 56.2833 63.0004 54.6015 63.0004H58.2249C59.9188 63.0004 61.4276 61.9744 62.099 60.4192C63.0782 58.1513 64.8999 55.8839 66.0556 54.574C66.1043 54.5187 66.1523 54.463 66.1966 54.4048C66.2884 54.2839 66.4096 54.1396 66.5857 53.82L66.6023 53.7906Z" fill="#FE950D"/>
<path d="M44.7789 41.8669L37.3526 46.9037C37.2188 46.9944 37.061 47.0431 36.8992 47.0431H4.15268C3.26551 47.0431 2.54639 47.7622 2.54639 48.6493V49.922C2.54639 50.8092 3.26551 51.5283 4.15268 51.5283H66.1545C67.9765 51.5283 69.4536 50.0513 69.4536 48.2292V45.0501C69.4536 43.228 67.9765 41.751 66.1545 41.751H45.1569C45.0221 41.7508 44.8905 41.7914 44.7789 41.8669Z" fill="#4E7FCE"/>
<path d="M66.1545 41.7505H62.73C64.5521 41.7505 66.0291 43.2275 66.0291 45.0496V48.2287C66.0291 50.0508 64.5521 51.5278 62.73 51.5278H66.1545C67.9765 51.5278 69.4536 50.0508 69.4536 48.2287V45.0496C69.4536 43.2275 67.9765 41.7505 66.1545 41.7505Z" fill="#2E5CA9"/>
<path d="M34.988 41.1827C35.1201 39.8553 34.151 38.6721 32.8235 38.54C31.496 38.408 30.3128 39.377 30.1807 40.7044C30.0487 42.0318 31.0177 43.215 32.3452 43.3471C33.6727 43.4791 34.8559 42.5101 34.988 41.1827Z" fill="#93AEDA"/>
<path d="M52.3623 44.3589C48.4029 44.3589 45.1931 47.5687 45.1931 51.5281C45.1931 55.4877 48.4029 58.6974 52.3623 58.6974C56.3219 58.6974 59.5316 55.4877 59.5316 51.5281C59.5316 47.5687 56.3217 44.3589 52.3623 44.3589ZM52.3623 55.1128C50.3825 55.1128 48.7777 53.5079 48.7777 51.5281C48.7777 49.5485 50.3825 47.9435 52.3623 47.9435C54.3421 47.9435 55.9469 49.5485 55.9469 51.5281C55.9469 53.5079 54.3421 55.1128 52.3623 55.1128Z" fill="#DFECFF"/>
</svg>
