<svg width="130" height="38" viewBox="0 0 130 38" fill="none" xmlns="http://www.w3.org/2000/svg">
<path fill-rule="evenodd" clip-rule="evenodd" d="M125.007 38H5.77132C3.14165 38 1 35.8584 1 33.25V4.75C1 2.13217 3.14165 0 5.77132 0H125.007C127.634 0 129.778 2.13217 129.778 4.75V33.25C129.778 35.8584 127.634 38 125.007 38Z" fill="black"/>
<path fill-rule="evenodd" clip-rule="evenodd" d="M125.007 0.760474C127.213 0.760474 129.018 2.55387 129.018 4.75V33.25C129.018 35.4461 127.224 37.2395 125.007 37.2395H5.77132C3.56571 37.2395 1.76047 35.4461 1.76047 33.25V4.75C1.76047 2.55387 3.55387 0.760474 5.77132 0.760474H125.007ZM125.007 0H5.77132C3.14165 0 1 2.14165 1 4.75V33.25C1 35.8678 3.14165 38 5.77132 38H125.007C127.634 38 129.778 35.8678 129.778 33.25V4.75C129.778 2.14165 127.634 0 125.007 0Z" fill="#A6A6A6"/>
<path d="M68.8408 12.5703C67.9809 12.5703 67.2559 12.2694 66.6826 11.6771C66.114 11.1014 65.7966 10.3078 65.8108 9.49757C65.8108 8.63286 66.1046 7.90081 66.6826 7.32039C67.2535 6.72812 67.9785 6.42725 68.8385 6.42725C69.689 6.42725 70.4139 6.72812 70.9967 7.32039C71.5747 7.91977 71.8685 8.65181 71.8685 9.49757C71.859 10.3647 71.5653 11.0967 70.9967 11.6748C70.4257 12.2718 69.7008 12.5703 68.8408 12.5703ZM43.2525 12.5703C42.4115 12.5703 41.6818 12.2741 41.0848 11.689C40.4926 11.1062 40.1917 10.3694 40.1917 9.49994C40.1917 8.63049 40.4926 7.89371 41.0848 7.31091C41.67 6.72575 42.3997 6.42962 43.2525 6.42962C43.6695 6.42962 44.0746 6.51253 44.4631 6.68074C44.8445 6.8442 45.1549 7.0669 45.3847 7.33934L45.4415 7.40804L44.7995 8.03822L44.7332 7.96004C44.3707 7.52887 43.8851 7.31802 43.243 7.31802C42.6697 7.31802 42.1699 7.52176 41.7576 7.9245C41.343 8.32962 41.1322 8.86029 41.1322 9.50231C41.1322 10.1443 41.343 10.675 41.7576 11.0801C42.1699 11.4829 42.6697 11.6866 43.243 11.6866C43.8543 11.6866 44.3683 11.4829 44.7687 11.0801C45.0056 10.8432 45.1525 10.5115 45.2046 10.0922H43.1459V9.20617H46.0883L46.1001 9.28672C46.1215 9.43597 46.1428 9.58996 46.1428 9.73211C46.1428 10.5494 45.8964 11.2104 45.4084 11.6984C44.854 12.2765 44.1291 12.5703 43.2525 12.5703ZM77.2747 12.4447H76.3674L73.5884 7.99794L73.6121 8.79869V12.4423H72.7048V6.55518H73.7401L73.7685 6.60019L76.3816 10.7887L76.3579 9.99034V6.55518H77.2747V12.4447ZM62.0226 12.4447H61.1034V7.44121H59.5091V6.55518H63.6147V7.44121H62.0203V12.4447H62.0226ZM58.7604 12.4447H57.8436V6.55518H58.7604V12.4447ZM53.6077 12.4447H52.6909V7.44121H51.0965V6.55518H55.2021V7.44121H53.6077V12.4447ZM50.5161 12.4352H47.0004V6.55518H50.5161V7.44121H47.9196V9.05692H50.2626V9.93348H47.9196V11.5492H50.5161V12.4352ZM67.3554 11.0683C67.7653 11.4781 68.2628 11.6842 68.8408 11.6842C69.4355 11.6842 69.9211 11.4829 70.3262 11.0683C70.729 10.6655 70.9327 10.1372 70.9327 9.49994C70.9327 8.86266 70.729 8.33198 70.3286 7.93161C69.9187 7.52176 69.4189 7.31565 68.8432 7.31565C68.2486 7.31565 67.7629 7.51702 67.3602 7.93161C66.9574 8.33435 66.7537 8.86266 66.7537 9.49994C66.7537 10.1372 66.955 10.6679 67.3554 11.0683Z" fill="white"/>
<path fill-rule="evenodd" clip-rule="evenodd" d="M65.7255 20.6682C63.4867 20.6682 61.672 22.3668 61.672 24.7098C61.672 27.0315 63.4986 28.7515 65.7255 28.7515C67.9643 28.7515 69.779 27.041 69.779 24.7098C69.779 22.3668 67.9643 20.6682 65.7255 20.6682ZM65.7255 27.15C64.5007 27.15 63.4465 26.136 63.4465 24.7004C63.4465 23.2434 64.5031 22.2507 65.7255 22.2507C66.9503 22.2507 68.0046 23.2434 68.0046 24.7004C68.007 26.1455 66.9503 27.15 65.7255 27.15ZM56.8818 20.6682C54.643 20.6682 52.8283 22.3668 52.8283 24.7098C52.8283 27.0315 54.6548 28.7515 56.8818 28.7515C59.1205 28.7515 60.9352 27.041 60.9352 24.7098C60.9352 22.3668 59.1182 20.6682 56.8818 20.6682ZM56.8818 27.15C55.6569 27.15 54.6027 26.136 54.6027 24.7004C54.6027 23.2434 55.6593 22.2507 56.8818 22.2507C58.1066 22.2507 59.1608 23.2434 59.1608 24.7004C59.1608 26.1455 58.1066 27.15 56.8818 27.15ZM46.3583 21.9025V23.6129H50.4639C50.3384 24.5724 50.0209 25.2808 49.5352 25.7664C48.9335 26.3682 48.0048 27.022 46.3678 27.022C43.8447 27.022 41.8713 24.9846 41.8713 22.4616C41.8713 19.9385 43.8447 17.9011 46.3678 17.9011C47.73 17.9011 48.7226 18.4389 49.4594 19.1259L50.6724 17.9129C49.649 16.9321 48.2867 16.1812 46.3773 16.1812C42.916 16.1812 40.0115 19.0004 40.0115 22.4521C40.0115 25.9133 42.9137 28.723 46.3773 28.723C48.2465 28.723 49.649 28.1118 50.7577 26.9605C51.8877 25.8304 52.2455 24.236 52.2455 22.9496C52.2455 22.5492 52.2147 22.1891 52.1507 21.8835H46.3559C46.3583 21.8812 46.3583 21.9025 46.3583 21.9025ZM89.4021 23.2339C89.0633 22.3265 88.0399 20.6587 85.9409 20.6587C83.8608 20.6587 82.1314 22.2957 82.1314 24.7004C82.1314 26.9699 83.8419 28.742 86.1423 28.742C87.9901 28.742 89.0657 27.612 89.5087 26.9486L88.137 26.0294C87.6822 26.7046 87.0496 27.1476 86.1517 27.1476C85.2444 27.1476 84.6095 26.7354 84.1878 25.9228L89.5916 23.684C89.5916 23.6864 89.4021 23.2339 89.4021 23.2339ZM83.8916 24.5843C83.849 23.023 85.1046 22.2294 86.0025 22.2294C86.7108 22.2294 87.3007 22.5777 87.5021 23.0846L83.8916 24.5843ZM79.5017 28.5004H81.2762V16.6265H79.5017V28.5004ZM76.5878 21.5661H76.5238C76.1234 21.0899 75.3629 20.6587 74.3916 20.6587C72.3755 20.6587 70.5182 22.4331 70.5182 24.7122C70.5182 26.9818 72.3661 28.7349 74.3916 28.7349C75.3511 28.7349 76.1234 28.3014 76.5238 27.8157H76.5878V28.3961C76.5878 29.9384 75.7633 30.7699 74.4343 30.7699C73.3469 30.7699 72.6717 29.9881 72.3969 29.3343L70.8546 29.9787C71.2976 31.0447 72.4798 32.3643 74.4319 32.3643C76.512 32.3643 78.2745 31.1395 78.2745 28.1521V20.9004H76.5972V21.5661C76.5996 21.5661 76.5878 21.5661 76.5878 21.5661ZM74.5504 27.15C73.3255 27.15 72.3021 26.1265 72.3021 24.7122C72.3021 23.286 73.3255 22.2531 74.5504 22.2531C75.7633 22.2531 76.7038 23.2979 76.7038 24.7122C76.7157 26.1265 75.7657 27.15 74.5504 27.15ZM97.7105 16.6265H93.4675V28.5004H95.2419V24.0038H97.7128C99.6768 24.0038 101.608 22.58 101.608 20.3199C101.608 18.0598 99.6839 16.6265 97.7105 16.6265ZM97.7626 22.3455H95.2395V18.2707H97.7626C99.0916 18.2707 99.8427 19.3676 99.8427 20.3081C99.8427 21.2391 99.0822 22.3455 97.7626 22.3455ZM108.72 20.6469C107.431 20.6469 106.102 21.2178 105.552 22.4616L107.125 23.1154C107.464 22.4616 108.085 22.2389 108.741 22.2389C109.66 22.2389 110.589 22.7885 110.61 23.7693V23.8949C110.293 23.7148 109.596 23.44 108.762 23.44C107.064 23.44 105.341 24.3687 105.341 26.11C105.341 27.7043 106.734 28.7278 108.286 28.7278C109.478 28.7278 110.134 28.19 110.544 27.5669H110.608V28.4861H112.318V23.9375C112.318 21.8196 110.745 20.6469 108.72 20.6469ZM108.497 27.15C107.916 27.15 107.104 26.8657 107.104 26.136C107.104 25.2168 108.118 24.8686 108.983 24.8686C109.764 24.8686 110.134 25.0368 110.598 25.2689C110.47 26.335 109.57 27.1405 108.497 27.15ZM118.558 20.9004L116.521 26.0507H116.457L114.346 20.9004H112.437L115.604 28.1L113.799 32.1014H115.647L120.52 20.9004H118.558ZM102.586 28.5004H104.36V16.6265H102.586V28.5004Z" fill="white"/>
<path fill-rule="evenodd" clip-rule="evenodd" d="M10.9122 7.15674C10.6374 7.45287 10.4787 7.90537 10.4787 8.49764V29.5042C10.4787 30.0965 10.6374 30.549 10.9217 30.8333L10.9952 30.8973L22.7647 19.1277V18.8647L10.9857 7.09277L10.9122 7.15674Z" fill="url(#paint0_linear)"/>
<path fill-rule="evenodd" clip-rule="evenodd" d="M26.6808 23.0629L22.7552 19.1374V18.8626L26.6808 14.937L26.766 14.9891L31.4095 17.6283C32.7385 18.3769 32.7385 19.6136 31.4095 20.3717L26.766 23.0108L26.6808 23.0629Z" fill="url(#paint1_linear)"/>
<path fill-rule="evenodd" clip-rule="evenodd" d="M26.7661 23.0108L22.7553 19L10.9122 30.843C11.3458 31.3074 12.0731 31.3595 12.8857 30.907L26.7661 23.0108Z" fill="url(#paint2_linear)"/>
<path fill-rule="evenodd" clip-rule="evenodd" d="M26.7661 14.9888L12.8857 7.10454C12.0731 6.6402 11.3434 6.70417 10.9122 7.16851L22.7553 18.9997L26.7661 14.9888Z" fill="url(#paint3_linear)"/>
<path opacity="0.2" fill-rule="evenodd" clip-rule="evenodd" d="M26.6808 22.9258L12.8951 30.758C12.1252 31.201 11.4381 31.1702 10.9951 30.7674L10.9217 30.8409L10.9951 30.9049C11.4381 31.3052 12.1252 31.3384 12.8951 30.8954L26.7756 23.0111L26.6808 22.9258Z" fill="black"/>
<path opacity="0.12" fill-rule="evenodd" clip-rule="evenodd" d="M31.4095 20.2343L26.6689 22.9256L26.7542 23.0108L31.3976 20.3717C32.0633 19.9926 32.3903 19.4951 32.3903 19C32.35 19.4549 32.0112 19.886 31.4095 20.2343Z" fill="black"/>
<path opacity="0.25" fill-rule="evenodd" clip-rule="evenodd" d="M12.8857 7.24267L31.4095 17.7661C32.0112 18.1049 32.35 18.5479 32.4021 19.0004C32.4021 18.5053 32.0752 18.0078 31.4095 17.6287L12.8857 7.10526C11.5566 6.34479 10.4787 6.9797 10.4787 8.49828V8.63568C10.4787 7.11474 11.5566 6.49167 12.8857 7.24267Z" fill="white"/>
<defs>
<linearGradient id="paint0_linear" x1="21.709" y1="8.271" x2="2.85619" y2="13.2944" gradientUnits="userSpaceOnUse">
<stop stop-color="#00A0FF"/>
<stop offset="0.00657" stop-color="#00A1FF"/>
<stop offset="0.2601" stop-color="#00BEFF"/>
<stop offset="0.5122" stop-color="#00D2FF"/>
<stop offset="0.7604" stop-color="#00DFFF"/>
<stop offset="1" stop-color="#00E3FF"/>
</linearGradient>
<linearGradient id="paint1_linear" x1="33.1427" y1="19" x2="10.1556" y2="19" gradientUnits="userSpaceOnUse">
<stop stop-color="#FFE000"/>
<stop offset="0.4087" stop-color="#FFBD00"/>
<stop offset="0.7754" stop-color="#FFA500"/>
<stop offset="1" stop-color="#FF9C00"/>
</linearGradient>
<linearGradient id="paint2_linear" x1="24.5852" y1="21.1825" x2="9.4502" y2="46.6559" gradientUnits="userSpaceOnUse">
<stop stop-color="#FF3A44"/>
<stop offset="1" stop-color="#C31162"/>
</linearGradient>
<linearGradient id="paint3_linear" x1="7.93003" y1="0.169529" x2="14.6823" y2="11.5463" gradientUnits="userSpaceOnUse">
<stop stop-color="#32A071"/>
<stop offset="0.0685" stop-color="#2DA771"/>
<stop offset="0.4762" stop-color="#15CF74"/>
<stop offset="0.8009" stop-color="#06E775"/>
<stop offset="1" stop-color="#00F076"/>
</linearGradient>
</defs>
</svg>
