<svg width="130" height="38" viewBox="0 0 130 38" fill="none" xmlns="http://www.w3.org/2000/svg">
<path d="M124.687 38H5.49255C3.0159 38 1 35.9784 1 33.5036V4.4897C1 2.014 3.0159 0 5.49255 0H124.687C127.163 0 129.25 2.014 129.25 4.4897V33.5036C129.25 35.9784 127.163 38 124.687 38Z" fill="#A6A6A6"/>
<path d="M128.33 33.5048C128.33 35.515 126.702 37.1433 124.688 37.1433H5.49251C3.47946 37.1433 1.84546 35.515 1.84546 33.5048V4.48895C1.84546 2.4797 3.47946 0.845703 5.49251 0.845703H124.687C126.702 0.845703 128.329 2.4797 128.329 4.48895L128.33 33.5048Z" fill="black"/>
<path d="M29.6216 18.7944C29.5941 15.7326 32.1287 14.243 32.2446 14.1736C30.8091 12.0808 28.5842 11.7948 27.8024 11.772C25.9337 11.5754 24.1211 12.8902 23.1692 12.8902C22.1983 12.8902 20.7325 11.791 19.1526 11.8233C17.1196 11.8547 15.2177 13.0317 14.1746 14.8595C12.0219 18.5864 13.6274 24.0631 15.6899 27.0756C16.7216 28.5509 17.9271 30.1982 19.5051 30.1402C21.0488 30.0766 21.6255 29.156 23.4884 29.156C25.3343 29.156 25.8758 30.1402 27.4851 30.1032C29.1419 30.0766 30.185 28.6212 31.1806 27.1326C32.3728 25.4416 32.8516 23.7762 32.8706 23.6907C32.8317 23.6774 29.653 22.4643 29.6216 18.7944Z" fill="white"/>
<path d="M26.5816 9.79031C27.4119 8.75196 27.98 7.33931 27.8223 5.90576C26.6206 5.95896 25.1177 6.73701 24.2522 7.75256C23.4865 8.64746 22.8025 10.1143 22.9792 11.4937C24.3292 11.5944 25.7152 10.8125 26.5816 9.79031Z" fill="white"/>
<path d="M51.9627 29.9292H49.8053L48.6235 26.2157H44.5157L43.3899 29.9292H41.2895L45.3593 17.2866H47.873L51.9627 29.9292ZM48.2672 24.6577L47.1985 21.3564C47.0854 21.0192 46.8736 20.225 46.561 18.9748H46.523C46.3986 19.5125 46.1981 20.3067 45.9226 21.3564L44.8729 24.6577H48.2672Z" fill="white"/>
<path d="M62.4289 25.2586C62.4289 26.809 62.0099 28.0345 61.172 28.9342C60.4215 29.735 59.4896 30.135 58.3771 30.135C57.1763 30.135 56.3137 29.7037 55.7884 28.8411H55.7504V33.6433H53.725V23.8137C53.725 22.839 53.6993 21.8386 53.6499 20.8126H55.4312L55.5442 22.2576H55.5822C56.2577 21.1689 57.2827 20.6255 58.6583 20.6255C59.7337 20.6255 60.6315 21.0501 61.3497 21.9004C62.0698 22.7516 62.4289 23.8707 62.4289 25.2586ZM60.3655 25.3327C60.3655 24.4454 60.166 23.7139 59.7651 23.1382C59.3271 22.5378 58.7391 22.2376 58.0019 22.2376C57.5022 22.2376 57.0481 22.4048 56.6424 22.7345C56.2358 23.067 55.9698 23.5011 55.8454 24.0388C55.7827 24.2896 55.7513 24.4948 55.7513 24.6563V26.1763C55.7513 26.8394 55.9546 27.399 56.3612 27.8559C56.7678 28.3129 57.296 28.5409 57.9458 28.5409C58.7087 28.5409 59.3024 28.2464 59.7271 27.6593C60.1527 27.0712 60.3655 26.296 60.3655 25.3327Z" fill="white"/>
<path d="M72.9141 25.2586C72.9141 26.809 72.4951 28.0345 71.6563 28.9342C70.9067 29.735 69.9748 30.135 68.8623 30.135C67.6615 30.135 66.7989 29.7037 66.2745 28.8411H66.2365V33.6433H64.2111V23.8137C64.2111 22.839 64.1854 21.8386 64.136 20.8126H65.9173L66.0304 22.2576H66.0683C66.7428 21.1689 67.7679 20.6255 69.1445 20.6255C70.2189 20.6255 71.1167 21.0501 71.8368 21.9004C72.554 22.7516 72.9141 23.8707 72.9141 25.2586ZM70.8507 25.3327C70.8507 24.4454 70.6502 23.7139 70.2493 23.1382C69.8114 22.5378 69.2252 22.2376 68.4871 22.2376C67.9864 22.2376 67.5333 22.4048 67.1267 22.7345C66.7201 23.067 66.455 23.5011 66.3305 24.0388C66.2688 24.2896 66.2365 24.4948 66.2365 24.6563V26.1763C66.2365 26.8394 66.4398 27.399 66.8445 27.8559C67.2511 28.3119 67.7793 28.5409 68.431 28.5409C69.1939 28.5409 69.7876 28.2464 70.2123 27.6593C70.6379 27.0712 70.8507 26.296 70.8507 25.3327Z" fill="white"/>
<path d="M84.637 26.3835C84.637 27.4589 84.2637 28.3339 83.5141 29.0093C82.6905 29.7475 81.5438 30.1161 80.0704 30.1161C78.71 30.1161 77.6194 29.8539 76.7939 29.3285L77.2632 27.6404C78.1524 28.1781 79.128 28.4479 80.191 28.4479C80.9539 28.4479 81.5476 28.275 81.9742 27.9311C82.3988 27.5872 82.6107 27.1255 82.6107 26.5498C82.6107 26.0368 82.4359 25.6045 82.0853 25.254C81.7367 24.9034 81.1543 24.5776 80.3411 24.2764C78.1277 23.4509 77.0219 22.2415 77.0219 20.6512C77.0219 19.6119 77.4095 18.7598 78.1856 18.0967C78.9589 17.4326 79.9906 17.1011 81.2807 17.1011C82.4311 17.1011 83.3868 17.3015 84.1497 17.7015L83.6433 19.3526C82.9308 18.965 82.1252 18.7712 81.2237 18.7712C80.5112 18.7712 79.9545 18.9469 79.5555 19.2965C79.2183 19.6091 79.0491 19.99 79.0491 20.4413C79.0491 20.941 79.242 21.3542 79.6296 21.6791C79.9668 21.9793 80.5796 22.3042 81.4688 22.6548C82.5565 23.0927 83.3555 23.6048 83.8694 24.1919C84.3815 24.7771 84.637 25.5095 84.637 26.3835Z" fill="white"/>
<path d="M91.3336 22.333H89.1011V26.759C89.1011 27.8848 89.4944 28.4472 90.2829 28.4472C90.6448 28.4472 90.945 28.4158 91.1825 28.3531L91.2386 29.8912C90.8396 30.0403 90.3142 30.1154 89.6635 30.1154C88.8636 30.1154 88.2385 29.8712 87.7872 29.3839C87.3379 28.8956 87.1118 28.0767 87.1118 26.9262V22.3311H85.7818V20.8111H87.1118V19.1419L89.1011 18.5415V20.8111H91.3336V22.333Z" fill="white"/>
<path d="M101.406 25.2957C101.406 26.697 101.006 27.8474 100.206 28.7471C99.3668 29.6733 98.2534 30.135 96.8654 30.135C95.5278 30.135 94.4629 29.6914 93.6687 28.8041C92.8745 27.9168 92.4774 26.7967 92.4774 25.4468C92.4774 24.0341 92.8859 22.877 93.7057 21.9774C94.5237 21.0768 95.6276 20.6265 97.0155 20.6265C98.3531 20.6265 99.4295 21.0701 100.242 21.9584C101.019 22.82 101.406 23.9325 101.406 25.2957ZM99.305 25.3613C99.305 24.5205 99.1255 23.7995 98.7616 23.1981C98.337 22.4704 97.7299 22.1075 96.9433 22.1075C96.1292 22.1075 95.5107 22.4714 95.0861 23.1981C94.7222 23.8004 94.5427 24.5329 94.5427 25.3993C94.5427 26.24 94.7222 26.9611 95.0861 27.5615C95.524 28.2892 96.1358 28.6521 96.9253 28.6521C97.6986 28.6521 98.3056 28.2816 98.7436 27.5425C99.1169 26.9297 99.305 26.2011 99.305 25.3613Z" fill="white"/>
<path d="M107.99 22.5939C107.789 22.5568 107.576 22.5378 107.352 22.5378C106.639 22.5378 106.088 22.8067 105.7 23.3453C105.363 23.8203 105.194 24.4207 105.194 25.1456V29.9288H103.17L103.189 23.6835C103.189 22.6328 103.163 21.6762 103.113 20.8136H104.877L104.951 22.5578H105.007C105.221 21.9583 105.558 21.4757 106.02 21.1138C106.471 20.7879 106.958 20.6255 107.484 20.6255C107.671 20.6255 107.84 20.6388 107.99 20.6625V22.5939Z" fill="white"/>
<path d="M117.048 24.9394C117.048 25.3023 117.024 25.6082 116.974 25.8581H110.898C110.922 26.7587 111.215 27.4474 111.779 27.9224C112.292 28.3471 112.954 28.5599 113.767 28.5599C114.667 28.5599 115.487 28.4164 116.225 28.1286L116.543 29.5346C115.68 29.9108 114.662 30.0979 113.487 30.0979C112.073 30.0979 110.963 29.6818 110.156 28.8506C109.35 28.0193 108.947 26.9031 108.947 25.5028C108.947 24.1281 109.322 22.9834 110.073 22.0704C110.86 21.0957 111.923 20.6084 113.261 20.6084C114.574 20.6084 115.569 21.0957 116.244 22.0704C116.779 22.8447 117.048 23.8023 117.048 24.9394ZM115.117 24.4141C115.13 23.8137 114.998 23.295 114.724 22.857C114.373 22.2937 113.834 22.0125 113.109 22.0125C112.447 22.0125 111.909 22.287 111.497 22.838C111.16 23.276 110.96 23.8013 110.898 24.4131H115.117V24.4141Z" fill="white"/>
<path d="M47.5974 9.50827C47.5974 10.6264 47.2621 11.4681 46.5923 12.0334C45.972 12.5549 45.0904 12.8162 43.9485 12.8162C43.3823 12.8162 42.8978 12.7915 42.4921 12.7421V6.63262C43.0213 6.54712 43.5913 6.50342 44.2069 6.50342C45.2946 6.50342 46.1145 6.73997 46.6674 7.21307C47.2868 7.74792 47.5974 8.51267 47.5974 9.50827ZM46.5477 9.53582C46.5477 8.81097 46.3558 8.25522 45.972 7.86762C45.5882 7.48097 45.0277 7.28717 44.2895 7.28717C43.976 7.28717 43.7091 7.30807 43.4877 7.35177V11.9963C43.6103 12.0153 43.8345 12.0239 44.1603 12.0239C44.9222 12.0239 45.5103 11.812 45.9245 11.3883C46.3387 10.9646 46.5477 10.3471 46.5477 9.53582Z" fill="white"/>
<path d="M53.1635 10.4852C53.1635 11.1739 52.9668 11.7382 52.5735 12.1809C52.1612 12.636 51.615 12.863 50.9329 12.863C50.2755 12.863 49.752 12.6455 49.3616 12.2085C48.9721 11.7724 48.7773 11.2224 48.7773 10.5593C48.7773 9.86579 48.9778 9.29674 49.3806 8.85499C49.7834 8.41324 50.3249 8.19189 51.007 8.19189C51.6644 8.19189 52.1926 8.40944 52.5925 8.84549C52.9725 9.26919 53.1635 9.81639 53.1635 10.4852ZM52.1308 10.5175C52.1308 10.1042 52.0415 9.74989 51.8639 9.45444C51.6549 9.09724 51.3575 8.91864 50.9709 8.91864C50.5709 8.91864 50.2669 9.09724 50.0579 9.45444C49.8793 9.74989 49.791 10.1099 49.791 10.5355C49.791 10.9488 49.8803 11.3031 50.0579 11.5986C50.2736 11.9558 50.5738 12.1344 50.9614 12.1344C51.3414 12.1344 51.6397 11.9529 51.8544 11.5891C52.0387 11.2879 52.1308 10.9307 52.1308 10.5175Z" fill="white"/>
<path d="M60.6267 8.28271L59.2254 12.761H58.3134L57.733 10.8164C57.5857 10.3309 57.466 9.84831 57.3729 9.36951H57.3549C57.2684 9.86161 57.1487 10.3433 56.9948 10.8164L56.3783 12.761H55.4558L54.1382 8.28271H55.1613L55.6677 10.4117C55.7902 10.9152 55.8909 11.3949 55.9717 11.849H55.9897C56.0638 11.4747 56.1864 10.9978 56.3593 10.4212L56.9948 8.28367H57.8061L58.4151 10.3756C58.5623 10.8857 58.682 11.3769 58.7742 11.85H58.8017C58.8692 11.3892 58.9708 10.8981 59.1057 10.3756L59.6491 8.28367H60.6267V8.28271Z" fill="white"/>
<path d="M65.788 12.7613H64.7924V10.1963C64.7924 9.40591 64.4922 9.01071 63.8899 9.01071C63.5945 9.01071 63.356 9.11901 63.1708 9.33656C62.9874 9.55411 62.8943 9.81061 62.8943 10.1042V12.7604H61.8987V9.56266C61.8987 9.16936 61.8864 8.74281 61.8626 8.28111H62.7376L62.7841 8.98127H62.8117C62.9276 8.76372 63.1005 8.58417 63.3275 8.44072C63.5973 8.27352 63.8994 8.18896 64.23 8.18896C64.648 8.18896 64.9957 8.32386 65.2722 8.59461C65.6161 8.92616 65.788 9.42111 65.788 10.0785V12.7613Z" fill="white"/>
<path d="M68.5335 12.7612H67.5388V6.22803H68.5335V12.7612Z" fill="white"/>
<path d="M74.395 10.4852C74.395 11.1739 74.1984 11.7382 73.8051 12.1809C73.3928 12.636 72.8456 12.863 72.1644 12.863C71.5061 12.863 70.9826 12.6455 70.5931 12.2085C70.2036 11.7724 70.0089 11.2224 70.0089 10.5593C70.0089 9.86579 70.2093 9.29674 70.6121 8.85499C71.0149 8.41324 71.5564 8.19189 72.2376 8.19189C72.8959 8.19189 73.4232 8.40944 73.8241 8.84549C74.2041 9.26919 74.395 9.81639 74.395 10.4852ZM73.3614 10.5175C73.3614 10.1042 73.2721 9.74989 73.0945 9.45444C72.8864 9.09724 72.5881 8.91864 72.2024 8.91864C71.8015 8.91864 71.4975 9.09724 71.2895 9.45444C71.1109 9.74989 71.0225 10.1099 71.0225 10.5355C71.0225 10.9488 71.1118 11.3031 71.2895 11.5986C71.5051 11.9558 71.8053 12.1344 72.1929 12.1344C72.5729 12.1344 72.8703 11.9529 73.085 11.5891C73.2702 11.2879 73.3614 10.9307 73.3614 10.5175Z" fill="white"/>
<path d="M79.2134 12.7614H78.3195L78.2454 12.2455H78.2178C77.9119 12.6569 77.4759 12.863 76.9097 12.863C76.4869 12.863 76.1449 12.7272 75.8875 12.4574C75.6538 12.2123 75.5369 11.9073 75.5369 11.5454C75.5369 10.9982 75.7649 10.5811 76.2238 10.2923C76.6817 10.0035 77.3258 9.86199 78.1551 9.86864V9.78504C78.1551 9.19509 77.8454 8.90059 77.2251 8.90059C76.7833 8.90059 76.3938 9.01174 76.0575 9.23214L75.8552 8.57854C76.2713 8.32109 76.7852 8.19189 77.3913 8.19189C78.5617 8.19189 79.1488 8.80939 79.1488 10.0444V11.6936C79.1488 12.141 79.1707 12.4973 79.2134 12.7614ZM78.1798 11.2224V10.5317C77.0816 10.5127 76.5325 10.8139 76.5325 11.4342C76.5325 11.6679 76.5952 11.8427 76.7235 11.9596C76.8517 12.0764 77.0151 12.1344 77.2099 12.1344C77.4284 12.1344 77.6326 12.065 77.8188 11.9273C78.006 11.7886 78.1209 11.6128 78.1637 11.3972C78.1741 11.3487 78.1798 11.2898 78.1798 11.2224Z" fill="white"/>
<path d="M84.8707 12.7612H83.9872L83.9406 12.042H83.9131C83.6309 12.5892 83.1502 12.8628 82.4748 12.8628C81.9352 12.8628 81.4858 12.651 81.1296 12.2273C80.7733 11.8036 80.5957 11.2535 80.5957 10.5781C80.5957 9.85323 80.7885 9.26613 81.1761 8.81773C81.5514 8.39973 82.0112 8.19073 82.5584 8.19073C83.1597 8.19073 83.5806 8.39308 83.82 8.79873H83.839V6.22803H84.8355V11.5547C84.8355 11.9907 84.8469 12.3926 84.8707 12.7612ZM83.839 10.8726V10.1259C83.839 9.99668 83.8295 9.89218 83.8114 9.81238C83.7554 9.57298 83.6347 9.37158 83.4514 9.20913C83.2661 9.04668 83.0429 8.96498 82.7854 8.96498C82.414 8.96498 82.1233 9.11223 81.9095 9.40768C81.6977 9.70313 81.5903 10.0803 81.5903 10.541C81.5903 10.9837 81.692 11.3428 81.8962 11.6193C82.1119 11.9138 82.4026 12.061 82.7664 12.061C83.0932 12.061 83.3545 11.9385 83.553 11.6924C83.7449 11.4654 83.839 11.1918 83.839 10.8726Z" fill="white"/>
<path d="M93.3855 10.4852C93.3855 11.1739 93.1889 11.7382 92.7956 12.1809C92.3833 12.636 91.838 12.863 91.1549 12.863C90.4985 12.863 89.975 12.6455 89.5836 12.2085C89.1941 11.7724 88.9994 11.2224 88.9994 10.5593C88.9994 9.86579 89.1998 9.29674 89.6026 8.85499C90.0054 8.41324 90.5469 8.19189 91.23 8.19189C91.8864 8.19189 92.4156 8.40944 92.8146 8.84549C93.1946 9.26919 93.3855 9.81639 93.3855 10.4852ZM92.3538 10.5175C92.3538 10.1042 92.2645 9.74989 92.0869 9.45444C91.8769 9.09724 91.5805 8.91864 91.1929 8.91864C90.7939 8.91864 90.4899 9.09724 90.28 9.45444C90.1014 9.74989 90.013 10.1099 90.013 10.5355C90.013 10.9488 90.1023 11.3031 90.28 11.5986C90.4956 11.9558 90.7958 12.1344 91.1834 12.1344C91.5634 12.1344 91.8627 11.9529 92.0774 11.5891C92.2607 11.2879 92.3538 10.9307 92.3538 10.5175Z" fill="white"/>
<path d="M98.7388 12.7613H97.7441V10.1963C97.7441 9.40591 97.4439 9.01071 96.8407 9.01071C96.5452 9.01071 96.3068 9.11901 96.1225 9.33656C95.9382 9.55411 95.846 9.81061 95.846 10.1042V12.7604H94.8495V9.56266C94.8495 9.16936 94.8381 8.74281 94.8143 8.28111H95.6883L95.7349 8.98127H95.7624C95.8793 8.76372 96.0522 8.58417 96.2783 8.44072C96.549 8.27352 96.8502 8.18896 97.1817 8.18896C97.5988 8.18896 97.9465 8.32386 98.2229 8.59461C98.5678 8.92616 98.7388 9.42111 98.7388 10.0785V12.7613Z" fill="white"/>
<path d="M105.439 9.02853H104.343V11.204C104.343 11.7569 104.538 12.0334 104.923 12.0334C105.102 12.0334 105.25 12.0182 105.367 11.9868L105.393 12.7421C105.196 12.8162 104.938 12.8532 104.619 12.8532C104.226 12.8532 103.92 12.7335 103.699 12.4941C103.476 12.2547 103.366 11.8519 103.366 11.2867V9.02853H102.712V8.28278H103.366V7.46198L104.342 7.16748V8.28183H105.438V9.02853H105.439Z" fill="white"/>
<path d="M110.71 12.7612H109.713V10.2152C109.713 9.41243 109.413 9.01058 108.812 9.01058C108.35 9.01058 108.035 9.24333 107.862 9.70883C107.832 9.80668 107.815 9.92638 107.815 10.067V12.7602H106.82V6.22803H107.815V8.92698H107.834C108.148 8.43583 108.597 8.19073 109.179 8.19073C109.592 8.19073 109.933 8.32563 110.203 8.59638C110.541 8.93363 110.71 9.43523 110.71 10.0983V12.7612Z" fill="white"/>
<path d="M116.147 10.3102C116.147 10.4888 116.133 10.6389 116.11 10.7614H113.124C113.137 11.2041 113.279 11.5414 113.556 11.7751C113.809 11.9841 114.134 12.0886 114.533 12.0886C114.975 12.0886 115.378 12.0183 115.741 11.8767L115.897 12.5683C115.472 12.7526 114.972 12.8448 114.394 12.8448C113.7 12.8448 113.154 12.6405 112.759 12.232C112.362 11.8235 112.165 11.2754 112.165 10.5876C112.165 9.91211 112.348 9.34971 112.718 8.90131C113.104 8.42251 113.625 8.18311 114.284 8.18311C114.928 8.18311 115.417 8.42251 115.748 8.90131C116.015 9.28131 116.147 9.75156 116.147 10.3102ZM115.197 10.0527C115.204 9.75726 115.139 9.50266 115.004 9.28796C114.831 9.01151 114.568 8.87281 114.211 8.87281C113.887 8.87281 113.621 9.00771 113.419 9.27846C113.254 9.49411 113.156 9.75156 113.124 10.0527H115.197Z" fill="white"/>
</svg>
