<svg width="101" height="48" viewBox="0 0 101 48" fill="none" xmlns="http://www.w3.org/2000/svg">
<path fill-rule="evenodd" clip-rule="evenodd" d="M16.5602 30.6436H13.6512L20.4263 18.2725L27.0684 30.6436H24.2166L20.4263 23.584L16.5602 30.6436Z" fill="#4E7FCE"/>
<path d="M28.1863 18.6049H33.4327C34.9694 18.6049 36.1619 18.969 37.0105 19.697C37.8591 20.4252 38.2838 21.4598 38.2838 22.8013C38.2838 24.2116 37.8591 25.3064 37.0105 26.086C36.1619 26.8657 34.9694 27.2556 33.4327 27.2556H31.2482V30.6436H28.1863V18.6049ZM31.2482 21.0127V24.8479H33.2781C33.9543 24.8479 34.4765 24.6815 34.8432 24.3491C35.2101 24.0166 35.3937 23.5351 35.3937 22.9044C35.3937 22.2854 35.2101 21.8153 34.8432 21.4943C34.4765 21.1733 33.9543 21.0127 33.2781 21.0127H31.2482Z" fill="#4E7FCE"/>
<path d="M39.8835 18.6049H45.1298C46.6665 18.6049 47.859 18.969 48.7076 19.697C49.5562 20.4252 49.9805 21.4598 49.9805 22.8013C49.9805 24.2116 49.5562 25.3064 48.7076 26.086C47.859 26.8657 46.6665 27.2556 45.1298 27.2556H42.9453V30.6436H39.8835V18.6049ZM42.9453 21.0127V24.8479H44.9752C45.6514 24.8479 46.1733 24.6815 46.5402 24.3491C46.9072 24.0166 47.0908 23.5351 47.0908 22.9044C47.0908 22.2854 46.9072 21.8153 46.5402 21.4943C46.1733 21.1733 45.6514 21.0127 44.9752 21.0127H42.9453Z" fill="#4E7FCE"/>
<path d="M68.1627 30.6436H65.4619L59.9231 23.2312V30.6436H57.0505V18.6049H59.751L65.3072 26.0344V18.6049H68.1627V30.6436Z" fill="#4E7FCE"/>
<path d="M73.6325 30.6436H70.5707V18.6049H73.6325V30.6436Z" fill="#4E7FCE"/>
<path d="M81.7517 18.5018C83.6208 18.5018 85.1746 19.0837 86.4132 20.2474C87.6519 21.4111 88.271 22.8643 88.271 24.6071C88.271 26.3612 87.6489 27.8288 86.4046 29.0098C85.1604 30.1906 83.6095 30.7812 81.7517 30.7812C79.8936 30.7812 78.3457 30.1936 77.1071 29.0184C75.8688 27.8432 75.2493 26.3727 75.2493 24.6071C75.2493 22.8529 75.8688 21.3968 77.1071 20.2388C78.3457 19.0807 79.8936 18.5018 81.7517 18.5018ZM81.786 21.0644C80.8458 21.0644 80.043 21.4054 79.378 22.0875C78.7127 22.7698 78.38 23.6153 78.38 24.6243C78.38 25.6332 78.7156 26.4846 79.3866 27.1782C80.0575 27.8718 80.8573 28.2187 81.786 28.2187C82.7148 28.2187 83.5034 27.8718 84.1512 27.1782C84.7991 26.4846 85.1231 25.6332 85.1231 24.6243C85.1231 23.6153 84.7991 22.7698 84.1512 22.0875C83.5034 21.4054 82.7148 21.0644 81.786 21.0644Z" fill="#4E7FCE"/>
<path d="M101 30.6436H98.2995L92.7604 23.2312V30.6436H89.8878V18.6049H92.5886L98.1446 26.0344V18.6049H101V30.6436Z" fill="#4E7FCE"/>
<path fill-rule="evenodd" clip-rule="evenodd" d="M8.39948 33.0119C4.60482 26.1551 4.10448 17.7779 8.11087 10.8398C9.60258 8.25689 11.616 6.04513 14.0379 4.30506C22.156 -1.52725 33.1338 -1.15149 41.5972 3.73383C45.1941 5.81011 48.312 8.68737 50.633 12.0722H47.193C45.3316 9.76952 42.9875 7.73378 40.2125 6.13215C29.3663 -0.128672 16.0678 2.59927 10.5095 12.2245C6.7844 18.6754 7.48149 26.5869 11.6112 32.9886L5.74189 43.1524L18.2269 39.8075C18.8225 40.2229 19.4411 40.6178 20.0837 40.9888C30.9299 47.2496 44.2281 44.5219 49.7867 34.8965C52.6705 29.9023 52.9036 24.0327 50.9456 18.6661H53.8841C54.8211 21.5912 55.1995 24.7043 54.8824 27.8817C54.586 30.8486 53.6767 33.6981 52.1849 36.2809C50.6933 38.8643 48.6793 41.0767 46.2567 42.8169C38.1388 48.6482 27.1616 48.2717 18.6989 43.3868C18.3745 43.1996 18.0537 43.0058 17.7369 42.8056L0 47.5575L8.39948 33.0119ZM61.9878 13.9C62.5298 14.8486 63.0102 15.8302 63.4246 16.8385H60.3938C59.921 15.8312 59.3681 14.8486 58.7401 13.9H61.9878ZM51.78 13.9C52.322 14.8486 52.8027 15.8302 53.2168 16.8385H50.186C49.7135 15.8312 49.1603 14.8486 48.5322 13.9H51.78ZM72.1957 13.9C72.7377 14.8486 73.218 15.8302 73.6325 16.8385H70.6016C70.1289 15.8312 69.576 14.8486 68.9479 13.9H72.1957Z" fill="#FE950D"/>
<path fill-rule="evenodd" clip-rule="evenodd" d="M18.1327 30.6434L20.3819 26.5363L22.587 30.6434H18.1327Z" fill="#FE950D"/>
</svg>
