<svg width="96" height="96" viewBox="0 0 96 96" fill="none" xmlns="http://www.w3.org/2000/svg">
<circle cx="48" cy="48" r="47.5" fill="#F6F8FB" stroke="#F0F2F5"/>
<g clip-path="url(#clip0)">
<path d="M68.068 38.5551L74.4837 28.6834L52.3348 14.055C51.298 13.3541 49.9894 13.6668 49.2885 14.7037L34.979 36.6974L44.9612 43.2449C44.7379 42.3101 44.8886 41.2861 45.4471 40.4808C46.6513 38.5728 49.3578 38.3215 50.9813 39.9888C51.9312 40.9871 52.2225 42.5378 51.6875 43.7724C51.1523 45.0067 50.1753 45.7145 48.9984 45.9166L58.9807 52.4641L65.3964 42.5923C65.5986 43.7692 66.3615 44.8123 67.5407 45.2814C68.7751 45.8165 70.3259 45.5251 71.3242 44.5752C72.9916 42.9516 72.6192 40.2346 70.777 38.9752C69.9716 38.4166 68.9474 38.2659 68.068 38.5551Z" fill="#FE950D"/>
<path d="M32.8485 56.3855C31.9137 56.8214 31.3162 57.5742 30.9836 58.4881L25.9705 47.7375L2.2104 58.817C1.11976 59.3256 0.662415 60.5822 1.20729 61.7507L12.3959 85.7446L23.0684 80.7679C22.1546 80.4353 21.4018 79.838 20.9658 78.9031C20.0214 76.8776 21.1281 74.3698 23.4858 73.9343C24.7996 73.701 26.2846 74.2415 27.0632 75.301C27.8418 76.3606 27.9608 77.6329 27.5088 78.6972L38.1814 73.7205L33.132 62.8921C34.1964 63.3442 35.4686 63.2251 36.5282 62.4465C37.6657 61.6315 38.1646 60.2608 37.8949 58.8691C37.3038 56.5841 34.8739 55.441 32.8485 56.3855Z" fill="#93AEDA"/>
<path d="M53.1389 66.7459C54.2449 67.0837 55.1429 67.9928 55.454 69.2702C55.8016 70.6257 55.339 72.0742 54.2015 72.8892C52.316 74.3374 49.7199 73.6512 48.7754 71.6258C48.3395 70.691 48.3295 69.6524 48.6984 68.8164L38.1037 73.7568L43.153 84.5852C42.0887 84.133 40.8164 84.2522 39.7569 85.0308C38.6194 85.8457 38.1205 87.2164 38.3902 88.6082C38.9036 90.9296 41.3335 92.0726 43.3589 91.1282C44.2937 90.6922 44.8912 89.9394 45.2238 89.0255L50.2732 99.854L74.0332 88.7745C75.1238 88.2659 75.5811 87.0094 75.0363 85.8409L63.8114 61.7692L53.1389 66.7459Z" fill="#93AEDA"/>
<path d="M39.7205 84.953C40.78 84.1744 42.0886 84.1332 43.1166 84.5074L38.1035 73.7568L27.431 78.7335C27.8831 77.6691 27.764 76.3969 26.9854 75.3374C26.1704 74.1999 24.7634 73.6231 23.408 73.9707C21.0866 74.4841 19.9435 76.914 20.888 78.9394C21.3239 79.8742 22.113 80.5495 22.9906 80.8043L12.3959 85.7447L23.5844 109.739C24.093 110.829 25.3859 111.364 26.4765 110.856L50.2368 99.7763L45.1874 88.9479C44.9328 89.8254 44.2575 90.6145 43.3225 91.0505C41.2971 91.995 38.8673 90.8519 38.3538 88.5305C38.1204 87.2166 38.6609 85.7316 39.7205 84.953Z" fill="#B8C9EA"/>
</g>
<defs>
<clipPath id="clip0">
<rect width="96" height="96" rx="48" fill="white"/>
</clipPath>
</defs>
</svg>
