<svg width="96" height="96" viewBox="0 0 96 96" fill="none" xmlns="http://www.w3.org/2000/svg">
<circle cx="48" cy="48" r="47.5" fill="#F6F8FB" stroke="#F0F2F5"/>
<g clip-path="url(#clip0)">
<path d="M28 76H20C18.8954 76 18 76.8954 18 78V96C18 97.1046 18.8954 98 20 98H28C29.1046 98 30 97.1046 30 96V78C30 76.8954 29.1046 76 28 76Z" fill="#B8C9EA"/>
<path d="M44 60H36C34.8954 60 34 60.8954 34 62V96C34 97.1046 34.8954 98 36 98H44C45.1046 98 46 97.1046 46 96V62C46 60.8954 45.1046 60 44 60Z" fill="#93AEDA"/>
<path d="M76 49H68C66.8954 49 66 49.8954 66 51V96C66 97.1046 66.8954 98 68 98H76C77.1046 98 78 97.1046 78 96V51C78 49.8954 77.1046 49 76 49Z" fill="#4E7FCE"/>
<path d="M60 67H52C50.8954 67 50 67.8954 50 69V96C50 97.1046 50.8954 98 52 98H60C61.1046 98 62 97.1046 62 96V69C62 67.8954 61.1046 67 60 67Z" fill="#B8C9EA"/>
<path d="M22.2525 57.5374L25.2495 60.5066L41.2889 44.3168L38.2919 41.3476L22.2525 57.5374Z" fill="#FFD9A8"/>
<path d="M38.9573 44.7697L54.998 51.6665L56.6645 47.7906L40.6237 40.8938L38.9573 44.7697Z" fill="#FFD9A8"/>
<path d="M54.2525 48.33L57.4101 51.1273L73.4485 33.0234L70.2908 30.226L54.2525 48.33Z" fill="#FFD9A8"/>
<path d="M24.025 64.6465C27.1316 64.6465 29.65 62.1281 29.65 59.0215C29.65 55.9149 27.1316 53.3965 24.025 53.3965C20.9184 53.3965 18.4 55.9149 18.4 59.0215C18.4 62.1281 20.9184 64.6465 24.025 64.6465Z" fill="#FFB351"/>
<path d="M40.025 48.4578C43.1316 48.4578 45.65 45.9394 45.65 42.8328C45.65 39.7262 43.1316 37.2078 40.025 37.2078C36.9184 37.2078 34.4 39.7262 34.4 42.8328C34.4 45.9394 36.9184 48.4578 40.025 48.4578Z" fill="#FE950D"/>
<path d="M71.9942 37.25C75.1699 37.25 77.7442 34.7316 77.7442 31.625C77.7442 28.5184 75.1699 26 71.9942 26C68.8186 26 66.2442 28.5184 66.2442 31.625C66.2442 34.7316 68.8186 37.25 71.9942 37.25Z" fill="#FE950D"/>
<path d="M55.9545 55.354C59.1302 55.354 61.7045 52.8356 61.7045 49.729C61.7045 46.6224 59.1302 44.104 55.9545 44.104C52.7789 44.104 50.2045 46.6224 50.2045 49.729C50.2045 52.8356 52.7789 55.354 55.9545 55.354Z" fill="#FFB351"/>
</g>
<defs>
<clipPath id="clip0">
<rect width="96" height="96" rx="48" fill="white"/>
</clipPath>
</defs>
</svg>
