<svg width="96" height="96" viewBox="0 0 96 96" fill="none" xmlns="http://www.w3.org/2000/svg">
<circle cx="48" cy="48" r="47.5" fill="#F6F8FB" stroke="#F0F2F5"/>
<g clip-path="url(#clip0)">
<path d="M71.7109 80.2969C67.7014 80.2969 63.7115 82.2828 61.5621 85.3258C58.7024 80.5166 53.4694 77.3281 47.5156 77.3281C41.541 77.3281 36.3161 80.5375 33.4691 85.3258C31.3197 82.2828 27.3299 80.2969 23.3203 80.2969C16.7624 80.2969 11 85.614 11 92.1719V95.1406H84.0312V92.1719C84.0312 85.614 78.2689 80.2969 71.7109 80.2969Z" fill="#93AEDA"/>
<path d="M79.1328 69.9062C79.1328 74.0051 75.8098 77.3281 71.7109 77.3281C67.6121 77.3281 64.2891 74.0051 64.2891 69.9062C64.2891 65.8074 67.6121 62.4844 71.7109 62.4844C75.8098 62.4844 79.1328 65.8074 79.1328 69.9062Z" fill="#93AEDA"/>
<path d="M57.9062 63.9688C57.9062 69.7074 53.2542 74.3594 47.5156 74.3594C41.777 74.3594 37.125 69.7074 37.125 63.9688C37.125 58.2301 41.777 53.5781 47.5156 53.5781C53.2542 53.5781 57.9062 58.2301 57.9062 63.9688Z" fill="#4E7FCE"/>
<path d="M30.7422 69.9062C30.7422 74.0051 27.4192 77.3281 23.3203 77.3281C19.2215 77.3281 15.8984 74.0051 15.8984 69.9062C15.8984 65.8074 19.2215 62.4844 23.3203 62.4844C27.4192 62.4844 30.7422 65.8074 30.7422 69.9062Z" fill="#93AEDA"/>
<ellipse cx="47.5156" cy="93.3" rx="16.15" ry="16.15" fill="#4E7FCE"/>
<path d="M58.9327 28.3341C58.771 27.8152 58.3407 27.4374 57.8223 27.359L51.8908 26.4617L49.235 20.8038C49.0045 20.3118 48.5254 20 48 20C47.4746 20 46.9955 20.3118 46.7645 20.8032L44.1092 26.4617L38.1777 27.3585C37.6593 27.4368 37.229 27.8152 37.0673 28.3341C36.9056 28.853 37.0405 29.4223 37.4154 29.8029L41.7107 34.165L40.697 40.3251C40.6084 40.8624 40.8206 41.4059 41.2444 41.7261C41.6656 42.0452 42.2264 42.0905 42.6927 41.8353L48 38.9274L53.3095 41.8353C53.7725 42.0894 54.3339 42.0468 54.7577 41.7261C55.181 41.4054 55.3932 40.8624 55.3046 40.3245L54.2898 34.165L58.5846 29.8029C58.9595 29.4223 59.0944 28.853 58.9327 28.3341Z" fill="#FE950D"/>
<path d="M79.9344 42.0098C79.7772 41.505 79.3588 41.1374 78.8547 41.0611L74.947 40.4692L73.1997 36.7771C72.9746 36.3011 72.5102 36 72.0009 36C71.4921 36 71.0267 36.3011 70.8016 36.7771L69.0532 40.4692L65.145 41.0611C64.6414 41.1374 64.223 41.505 64.0658 42.0098C63.908 42.5146 64.0391 43.0684 64.4038 43.4387L67.2313 46.3134L66.5637 50.3704C66.478 50.8932 66.6838 51.4214 67.096 51.7334C67.5076 52.0455 68.0535 52.0869 68.5037 51.8402L72.0004 49.925L75.496 51.8402C75.9463 52.0869 76.4926 52.0455 76.9043 51.7334C77.3159 51.4219 77.5217 50.8932 77.436 50.3704L76.7684 46.3134L79.5965 43.4387C79.9611 43.0684 80.0917 42.5146 79.9344 42.0098Z" fill="#FE950D"/>
<path d="M30.9344 42.0097C30.7772 41.5049 30.3588 41.1373 29.8547 41.0611L25.947 40.4692L24.1997 36.7771C23.9746 36.3011 23.5102 36 23.0009 36C22.4916 36 22.0267 36.3011 21.8016 36.7771L20.0532 40.4692L16.145 41.0611C15.6414 41.1373 15.223 41.5049 15.0658 42.0097C14.908 42.5145 15.0391 43.0683 15.4038 43.4386L18.2313 46.3133L17.5642 50.3703C17.478 50.893 17.6844 51.4212 18.096 51.7333C18.5076 52.0453 19.0535 52.0867 19.5042 51.84L23.0004 49.9248L26.496 51.84C26.9494 52.0883 27.4947 52.0437 27.9043 51.7333C28.3159 51.4218 28.5222 50.893 28.436 50.3703L27.7684 46.3133L30.5965 43.4386C30.9611 43.0683 31.0917 42.5145 30.9344 42.0097Z" fill="#FE950D"/>
</g>
<defs>
<clipPath id="clip0">
<rect width="96" height="96" rx="48" fill="white"/>
</clipPath>
</defs>
</svg>
